<?xml version="1.0" encoding="UTF-8" standalone="no"?>
<!DOCTYPE svg PUBLIC "-//W3C//DTD SVG 1.1//EN" "http://www.w3.org/Graphics/SVG/1.1/DTD/svg11.dtd">
<svg width="100%" height="100%" viewBox="0 0 164 164" version="1.1" xmlns="http://www.w3.org/2000/svg" xmlns:xlink="http://www.w3.org/1999/xlink" xml:space="preserve" xmlns:serif="http://www.serif.com/" style="fill-rule:evenodd;clip-rule:evenodd;stroke-linecap:round;stroke-linejoin:round;stroke-miterlimit:1.5;">
    <g transform="matrix(1,0,0,1,-3099,-1050)">
        <g transform="matrix(1.24067,0,0,1.24067,2408.18,532.936)">
            <g>
                <g transform="matrix(1.2391,0,0,1.2391,-196.399,-177.866)">
                    <circle cx="661.091" cy="533.346" r="48.787" style="fill:none;stroke:white;stroke-width:8.13px;"/>
                    <circle cx="661.091" cy="533.346" r="48.787" style="fill:rgb(68,67,66);"/>
                </g>
                <g transform="matrix(0.563605,0,0,0.563605,491.889,363.827)">
                    <g>
                        <g id="Brightness-icon" serif:id="Brightness icon">
                            <g transform="matrix(0.806019,0,0,0.806019,-1953.03,-853.496)">
                                <circle cx="2711.14" cy="1321.38" r="38.783" style="fill:none;stroke:white;stroke-width:22.18px;"/>
                            </g>
                            <g>
                                <g transform="matrix(0.806019,0,0,0.806019,-1956.18,-853.496)">
                                    <path d="M2715.04,1254.45L2715.04,1214.78" style="fill:none;stroke:white;stroke-width:22.18px;"/>
                                </g>
                                <g transform="matrix(0.806019,0,0,0.806019,-1956.18,-713.854)">
                                    <path d="M2715.04,1254.45L2715.04,1214.78" style="fill:none;stroke:white;stroke-width:22.18px;"/>
                                </g>
                            </g>
                            <g transform="matrix(6.12323e-17,1,-1,6.12323e-17,443.644,-20.748)">
                                <g transform="matrix(0.806019,0,0,0.806019,-1956.18,-853.496)">
                                    <path d="M2715.04,1254.45L2715.04,1214.78" style="fill:none;stroke:white;stroke-width:22.18px;"/>
                                </g>
                                <g transform="matrix(0.806019,0,0,0.806019,-1956.18,-713.854)">
                                    <path d="M2715.04,1254.45L2715.04,1214.78" style="fill:none;stroke:white;stroke-width:22.18px;"/>
                                </g>
                            </g>
                            <g transform="matrix(-0.707107,0.707107,-0.707107,-0.707107,545.899,196.777)">
                                <g transform="matrix(0.806019,0,0,0.806019,-1956.18,-853.496)">
                                    <path d="M2715.04,1254.45L2715.04,1214.78" style="fill:none;stroke:white;stroke-width:22.18px;"/>
                                </g>
                                <g transform="matrix(0.806019,0,0,0.806019,-1956.18,-713.854)">
                                    <path d="M2715.04,1254.45L2715.04,1214.78" style="fill:none;stroke:white;stroke-width:22.18px;"/>
                                </g>
                            </g>
                            <g transform="matrix(-0.707107,-0.707107,0.707107,-0.707107,246.867,525.151)">
                                <g transform="matrix(0.806019,0,0,0.806019,-1956.18,-853.496)">
                                    <path d="M2715.04,1254.45L2715.04,1214.78" style="fill:none;stroke:white;stroke-width:22.18px;"/>
                                </g>
                                <g transform="matrix(0.806019,0,0,0.806019,-1956.18,-713.854)">
                                    <path d="M2715.04,1254.45L2715.04,1214.78" style="fill:none;stroke:white;stroke-width:22.18px;"/>
                                </g>
                            </g>
                        </g>
                    </g>
                </g>
            </g>
        </g>
    </g>
</svg>
