<?xml version="1.0" encoding="UTF-8" standalone="no"?>
<!DOCTYPE svg PUBLIC "-//W3C//DTD SVG 1.1//EN" "http://www.w3.org/Graphics/SVG/1.1/DTD/svg11.dtd">
<svg width="100%" height="100%" viewBox="0 0 121 121" version="1.1" xmlns="http://www.w3.org/2000/svg" xmlns:xlink="http://www.w3.org/1999/xlink" xml:space="preserve" xmlns:serif="http://www.serif.com/" style="fill-rule:evenodd;clip-rule:evenodd;stroke-linejoin:round;stroke-miterlimit:1.41421;">
    <g transform="matrix(1,0,0,1,-2537,-1131)">
        <g transform="matrix(1,0,0,1,14.8737,-709.822)">
            <g id="tick-box" serif:id="tick box" transform="matrix(0.8,0,0,0.8,-40.2211,951.64)">
                <g id="Base" transform="matrix(6,0,0,6,2363.84,-8007.37)">
                    <path d="M165,1525C165,1522.24 162.76,1520 160,1520L145,1520C142.24,1520 140,1522.24 140,1525L140,1540C140,1542.76 142.24,1545 145,1545L160,1545C162.76,1545 165,1542.76 165,1540L165,1525Z" style="fill:rgb(68,67,66);"/>
                    <path d="M160.032,1520L160.065,1520L160.097,1520L160.129,1520L160.161,1520L160.193,1520L160.225,1520.01L160.257,1520.01L160.289,1520.01L160.321,1520.01L160.353,1520.01L160.384,1520.02L160.416,1520.02L160.448,1520.02L160.479,1520.02L160.511,1520.03L160.542,1520.03L160.574,1520.03L160.605,1520.04L160.636,1520.04L160.668,1520.04L160.699,1520.05L160.73,1520.05L160.761,1520.06L160.792,1520.06L160.823,1520.07L160.854,1520.07L160.885,1520.08L160.915,1520.08L160.946,1520.09L160.977,1520.1L161.007,1520.1L161.038,1520.11L161.068,1520.12L161.098,1520.12L161.129,1520.13L161.159,1520.13L161.189,1520.14L161.219,1520.15L161.249,1520.16L161.279,1520.16L161.309,1520.17L161.338,1520.18L161.368,1520.19L161.398,1520.2L161.427,1520.21L161.457,1520.22L161.486,1520.23L161.515,1520.23L161.545,1520.24L161.574,1520.25L161.603,1520.26L161.632,1520.27L161.661,1520.28L161.69,1520.29L161.718,1520.3L161.747,1520.31L161.776,1520.33L161.804,1520.34L161.833,1520.35L161.861,1520.36L161.889,1520.37L161.917,1520.38L161.945,1520.39L161.973,1520.4L162.001,1520.42L162.029,1520.43L162.057,1520.44L162.085,1520.45L162.112,1520.47L162.14,1520.48L162.167,1520.49L162.194,1520.51L162.221,1520.52L162.248,1520.53L162.275,1520.55L162.302,1520.56L162.329,1520.58L162.356,1520.59L162.382,1520.6L162.409,1520.62L162.435,1520.63L162.462,1520.65L162.488,1520.66L162.514,1520.68L162.54,1520.69L162.566,1520.71L162.592,1520.72L162.618,1520.74L162.643,1520.76L162.669,1520.77L162.694,1520.79L162.719,1520.81L162.745,1520.82L162.77,1520.84L162.795,1520.85L162.82,1520.87L162.844,1520.89L162.869,1520.91L162.894,1520.92L162.918,1520.94L162.942,1520.96L162.967,1520.98L162.991,1520.99L163.015,1521.01L163.039,1521.03L163.062,1521.05L163.086,1521.07L163.11,1521.09L163.133,1521.1L163.156,1521.12L163.18,1521.14L163.203,1521.16L163.226,1521.18L163.249,1521.2L163.271,1521.22L163.294,1521.24L163.317,1521.26L163.339,1521.28L163.361,1521.3L163.383,1521.32L163.405,1521.34L163.427,1521.36L163.449,1521.38L163.471,1521.4L163.492,1521.42L163.514,1521.44L163.535,1521.46L163.556,1521.49L163.577,1521.51L163.598,1521.53L163.619,1521.55L163.639,1521.57L163.66,1521.6L163.68,1521.62L163.7,1521.64L163.721,1521.66L163.741,1521.68L163.76,1521.71L163.78,1521.73L163.8,1521.75L163.819,1521.77L163.838,1521.8L163.858,1521.82L163.877,1521.84L163.896,1521.87L163.914,1521.89L163.933,1521.91L163.951,1521.94L163.97,1521.96L163.988,1521.99L164.006,1522.01L164.024,1522.03L164.042,1522.06L164.06,1522.08L164.077,1522.11L164.094,1522.13L164.112,1522.16L164.129,1522.18L164.146,1522.2L164.162,1522.23L164.179,1522.26L164.195,1522.28L164.212,1522.31L164.228,1522.33L164.244,1522.36L164.26,1522.38L164.276,1522.41L164.291,1522.43L164.307,1522.46L164.322,1522.49L164.337,1522.51L164.352,1522.54L164.367,1522.57L164.382,1522.59L164.396,1522.62L164.411,1522.64L164.425,1522.67L164.439,1522.7L164.453,1522.73L164.466,1522.75L164.48,1522.78L164.493,1522.81L164.507,1522.83L164.52,1522.86L164.533,1522.89L164.545,1522.91L164.558,1522.94L164.57,1522.97L164.583,1523L164.595,1523.03L164.607,1523.06L164.619,1523.08L164.63,1523.11L164.642,1523.14L164.653,1523.17L164.664,1523.2L164.675,1523.22L164.686,1523.25L164.696,1523.28L164.707,1523.31L164.717,1523.34L164.727,1523.37L164.737,1523.4L164.747,1523.43L164.756,1523.45L164.766,1523.49L164.775,1523.51L164.784,1523.54L164.793,1523.57L164.802,1523.6L164.81,1523.63L164.819,1523.66L164.827,1523.69L164.835,1523.72L164.842,1523.75L164.85,1523.78L164.858,1523.81L164.865,1523.84L164.872,1523.87L164.879,1523.9L164.885,1523.93L164.892,1523.96L164.898,1523.99L164.904,1524.02L164.91,1524.05L164.916,1524.09L164.922,1524.12L164.927,1524.15L164.932,1524.18L164.938,1524.21L164.942,1524.24L164.947,1524.27L164.951,1524.3L164.956,1524.33L164.96,1524.36L164.964,1524.39L164.967,1524.43L164.971,1524.46L164.974,1524.49L164.977,1524.52L164.98,1524.55L164.983,1524.58L164.985,1524.62L164.988,1524.65L164.99,1524.68L164.992,1524.71L164.993,1524.74L164.995,1524.78L164.996,1524.81L164.997,1524.84L164.998,1524.87L164.999,1524.9L165,1524.93L165,1524.97L165,1525L165,1540L165,1540.03L165,1540.07L164.999,1540.1L164.998,1540.13L164.997,1540.16L164.996,1540.19L164.995,1540.23L164.993,1540.26L164.992,1540.29L164.99,1540.32L164.988,1540.35L164.985,1540.38L164.983,1540.42L164.98,1540.45L164.977,1540.48L164.974,1540.51L164.971,1540.54L164.967,1540.57L164.964,1540.61L164.96,1540.64L164.956,1540.67L164.951,1540.7L164.947,1540.73L164.942,1540.76L164.938,1540.79L164.932,1540.82L164.927,1540.85L164.922,1540.88L164.916,1540.91L164.91,1540.95L164.904,1540.98L164.898,1541.01L164.892,1541.04L164.885,1541.07L164.879,1541.1L164.872,1541.13L164.865,1541.16L164.858,1541.19L164.85,1541.22L164.842,1541.25L164.835,1541.28L164.827,1541.31L164.819,1541.34L164.81,1541.37L164.802,1541.4L164.793,1541.43L164.784,1541.46L164.775,1541.49L164.766,1541.52L164.756,1541.55L164.747,1541.57L164.737,1541.6L164.727,1541.63L164.717,1541.66L164.707,1541.69L164.696,1541.72L164.686,1541.75L164.675,1541.78L164.664,1541.8L164.653,1541.83L164.642,1541.86L164.63,1541.89L164.619,1541.92L164.607,1541.94L164.595,1541.97L164.583,1542L164.57,1542.03L164.558,1542.06L164.545,1542.09L164.533,1542.11L164.52,1542.14L164.507,1542.17L164.493,1542.19L164.48,1542.22L164.466,1542.25L164.453,1542.28L164.439,1542.3L164.425,1542.33L164.411,1542.36L164.396,1542.38L164.382,1542.41L164.367,1542.43L164.352,1542.46L164.337,1542.49L164.322,1542.51L164.307,1542.54L164.291,1542.57L164.276,1542.59L164.26,1542.62L164.244,1542.64L164.228,1542.67L164.212,1542.69L164.195,1542.72L164.179,1542.75L164.162,1542.77L164.146,1542.8L164.129,1542.82L164.112,1542.84L164.094,1542.87L164.077,1542.89L164.06,1542.92L164.042,1542.94L164.024,1542.97L164.006,1542.99L163.988,1543.02L163.97,1543.04L163.951,1543.06L163.933,1543.09L163.914,1543.11L163.896,1543.13L163.877,1543.16L163.858,1543.18L163.838,1543.2L163.819,1543.23L163.8,1543.25L163.78,1543.27L163.76,1543.29L163.741,1543.32L163.721,1543.34L163.7,1543.36L163.68,1543.38L163.66,1543.4L163.639,1543.43L163.619,1543.45L163.598,1543.47L163.577,1543.49L163.556,1543.51L163.535,1543.54L163.514,1543.56L163.492,1543.58L163.471,1543.6L163.449,1543.62L163.427,1543.64L163.405,1543.66L163.383,1543.68L163.361,1543.7L163.339,1543.72L163.317,1543.74L163.294,1543.76L163.271,1543.78L163.249,1543.8L163.226,1543.82L163.203,1543.84L163.18,1543.86L163.156,1543.88L163.133,1543.9L163.11,1543.91L163.086,1543.93L163.062,1543.95L163.039,1543.97L163.015,1543.99L162.991,1544.01L162.967,1544.02L162.942,1544.04L162.918,1544.06L162.894,1544.08L162.869,1544.09L162.844,1544.11L162.82,1544.13L162.795,1544.15L162.77,1544.16L162.745,1544.18L162.719,1544.19L162.694,1544.21L162.669,1544.23L162.643,1544.24L162.618,1544.26L162.592,1544.28L162.566,1544.29L162.54,1544.31L162.514,1544.32L162.488,1544.34L162.462,1544.35L162.435,1544.37L162.409,1544.38L162.382,1544.4L162.356,1544.41L162.329,1544.42L162.302,1544.44L162.275,1544.45L162.248,1544.47L162.221,1544.48L162.194,1544.49L162.167,1544.51L162.14,1544.52L162.112,1544.53L162.085,1544.55L162.057,1544.56L162.029,1544.57L162.001,1544.58L161.973,1544.6L161.945,1544.61L161.917,1544.62L161.889,1544.63L161.861,1544.64L161.833,1544.65L161.804,1544.66L161.776,1544.67L161.747,1544.69L161.718,1544.7L161.69,1544.71L161.661,1544.72L161.632,1544.73L161.603,1544.74L161.574,1544.75L161.545,1544.76L161.515,1544.77L161.486,1544.78L161.457,1544.78L161.427,1544.79L161.398,1544.8L161.368,1544.81L161.338,1544.82L161.309,1544.83L161.279,1544.84L161.249,1544.84L161.219,1544.85L161.189,1544.86L161.159,1544.87L161.129,1544.87L161.098,1544.88L161.068,1544.88L161.038,1544.89L161.007,1544.9L160.977,1544.9L160.946,1544.91L160.915,1544.92L160.885,1544.92L160.854,1544.93L160.823,1544.93L160.792,1544.94L160.761,1544.94L160.73,1544.95L160.699,1544.95L160.668,1544.96L160.636,1544.96L160.605,1544.96L160.574,1544.97L160.542,1544.97L160.511,1544.97L160.479,1544.98L160.448,1544.98L160.416,1544.98L160.384,1544.99L160.353,1544.99L160.321,1544.99L160.289,1544.99L160.257,1544.99L160.225,1545L160.193,1545L160.161,1545L160.129,1545L160.097,1545L160.065,1545L160.032,1545L160,1545L145,1545L144.968,1545L144.935,1545L144.903,1545L144.871,1545L144.839,1545L144.807,1545L144.775,1545L144.743,1544.99L144.711,1544.99L144.679,1544.99L144.647,1544.99L144.616,1544.99L144.584,1544.98L144.552,1544.98L144.521,1544.98L144.489,1544.97L144.458,1544.97L144.426,1544.97L144.395,1544.96L144.364,1544.96L144.332,1544.96L144.301,1544.95L144.27,1544.95L144.239,1544.94L144.208,1544.94L144.177,1544.93L144.146,1544.93L144.115,1544.92L144.085,1544.92L144.054,1544.91L144.023,1544.9L143.993,1544.9L143.962,1544.89L143.932,1544.88L143.902,1544.88L143.871,1544.87L143.841,1544.87L143.811,1544.86L143.781,1544.85L143.751,1544.84L143.721,1544.84L143.691,1544.83L143.662,1544.82L143.632,1544.81L143.602,1544.8L143.573,1544.79L143.543,1544.78L143.514,1544.78L143.485,1544.77L143.455,1544.76L143.426,1544.75L143.397,1544.74L143.368,1544.73L143.339,1544.72L143.31,1544.71L143.282,1544.7L143.253,1544.69L143.224,1544.67L143.196,1544.66L143.167,1544.65L143.139,1544.64L143.111,1544.63L143.083,1544.62L143.055,1544.61L143.027,1544.6L142.999,1544.58L142.971,1544.57L142.943,1544.56L142.915,1544.55L142.888,1544.53L142.86,1544.52L142.833,1544.51L142.806,1544.49L142.779,1544.48L142.752,1544.47L142.725,1544.45L142.698,1544.44L142.671,1544.42L142.644,1544.41L142.618,1544.4L142.591,1544.38L142.565,1544.37L142.538,1544.35L142.512,1544.34L142.486,1544.32L142.46,1544.31L142.434,1544.29L142.408,1544.28L142.382,1544.26L142.357,1544.24L142.331,1544.23L142.306,1544.21L142.281,1544.19L142.255,1544.18L142.23,1544.16L142.205,1544.15L142.18,1544.13L142.156,1544.11L142.131,1544.09L142.106,1544.08L142.082,1544.06L142.058,1544.04L142.033,1544.02L142.009,1544.01L141.985,1543.99L141.961,1543.97L141.938,1543.95L141.914,1543.93L141.89,1543.91L141.867,1543.9L141.844,1543.88L141.82,1543.86L141.797,1543.84L141.774,1543.82L141.751,1543.8L141.729,1543.78L141.706,1543.76L141.683,1543.74L141.661,1543.72L141.639,1543.7L141.617,1543.68L141.595,1543.66L141.573,1543.64L141.551,1543.62L141.529,1543.6L141.508,1543.58L141.486,1543.56L141.465,1543.54L141.444,1543.51L141.423,1543.49L141.402,1543.47L141.381,1543.45L141.361,1543.43L141.34,1543.4L141.32,1543.38L141.3,1543.36L141.279,1543.34L141.259,1543.32L141.24,1543.29L141.22,1543.27L141.2,1543.25L141.181,1543.23L141.162,1543.2L141.142,1543.18L141.123,1543.16L141.104,1543.13L141.086,1543.11L141.067,1543.09L141.049,1543.06L141.03,1543.04L141.012,1543.02L140.994,1542.99L140.976,1542.97L140.958,1542.94L140.94,1542.92L140.923,1542.89L140.906,1542.87L140.888,1542.84L140.871,1542.82L140.854,1542.8L140.838,1542.77L140.821,1542.75L140.805,1542.72L140.788,1542.69L140.772,1542.67L140.756,1542.64L140.74,1542.62L140.724,1542.59L140.709,1542.57L140.693,1542.54L140.678,1542.51L140.663,1542.49L140.648,1542.46L140.633,1542.43L140.618,1542.41L140.604,1542.38L140.589,1542.36L140.575,1542.33L140.561,1542.3L140.547,1542.28L140.534,1542.25L140.52,1542.22L140.507,1542.19L140.493,1542.17L140.48,1542.14L140.467,1542.11L140.455,1542.09L140.442,1542.06L140.43,1542.03L140.417,1542L140.405,1541.97L140.393,1541.94L140.381,1541.92L140.37,1541.89L140.358,1541.86L140.347,1541.83L140.336,1541.8L140.325,1541.78L140.314,1541.75L140.304,1541.72L140.293,1541.69L140.283,1541.66L140.273,1541.63L140.263,1541.6L140.253,1541.57L140.244,1541.55L140.234,1541.52L140.225,1541.49L140.216,1541.46L140.207,1541.43L140.198,1541.4L140.19,1541.37L140.181,1541.34L140.173,1541.31L140.165,1541.28L140.158,1541.25L140.15,1541.22L140.142,1541.19L140.135,1541.16L140.128,1541.13L140.121,1541.1L140.115,1541.07L140.108,1541.04L140.102,1541.01L140.096,1540.98L140.09,1540.95L140.084,1540.91L140.078,1540.88L140.073,1540.85L140.068,1540.82L140.062,1540.79L140.058,1540.76L140.053,1540.73L140.049,1540.7L140.044,1540.67L140.04,1540.64L140.036,1540.61L140.033,1540.57L140.029,1540.54L140.026,1540.51L140.023,1540.48L140.02,1540.45L140.017,1540.42L140.015,1540.38L140.012,1540.35L140.01,1540.32L140.008,1540.29L140.007,1540.26L140.005,1540.23L140.004,1540.19L140.003,1540.16L140.002,1540.13L140.001,1540.1L140,1540.07L140,1540.03L140,1540L140,1525L140,1524.97L140,1524.93L140.001,1524.9L140.002,1524.87L140.003,1524.84L140.004,1524.81L140.005,1524.78L140.007,1524.74L140.008,1524.71L140.01,1524.68L140.012,1524.65L140.015,1524.62L140.017,1524.58L140.02,1524.55L140.023,1524.52L140.026,1524.49L140.029,1524.46L140.033,1524.43L140.036,1524.39L140.04,1524.36L140.044,1524.33L140.049,1524.3L140.053,1524.27L140.058,1524.24L140.062,1524.21L140.068,1524.18L140.073,1524.15L140.078,1524.12L140.084,1524.09L140.09,1524.05L140.096,1524.02L140.102,1523.99L140.108,1523.96L140.115,1523.93L140.121,1523.9L140.128,1523.87L140.135,1523.84L140.142,1523.81L140.15,1523.78L140.158,1523.75L140.165,1523.72L140.173,1523.69L140.181,1523.66L140.19,1523.63L140.198,1523.6L140.207,1523.57L140.216,1523.54L140.225,1523.51L140.234,1523.49L140.244,1523.45L140.253,1523.43L140.263,1523.4L140.273,1523.37L140.283,1523.34L140.293,1523.31L140.304,1523.28L140.314,1523.25L140.325,1523.22L140.336,1523.2L140.347,1523.17L140.358,1523.14L140.37,1523.11L140.381,1523.08L140.393,1523.06L140.405,1523.03L140.417,1523L140.43,1522.97L140.442,1522.94L140.455,1522.91L140.467,1522.89L140.48,1522.86L140.493,1522.83L140.507,1522.81L140.52,1522.78L140.534,1522.75L140.547,1522.73L140.561,1522.7L140.575,1522.67L140.589,1522.64L140.604,1522.62L140.618,1522.59L140.633,1522.57L140.648,1522.54L140.663,1522.51L140.678,1522.49L140.693,1522.46L140.709,1522.43L140.724,1522.41L140.74,1522.38L140.756,1522.36L140.772,1522.33L140.788,1522.31L140.805,1522.28L140.821,1522.26L140.838,1522.23L140.854,1522.2L140.871,1522.18L140.888,1522.16L140.906,1522.13L140.923,1522.11L140.94,1522.08L140.958,1522.06L140.976,1522.03L140.994,1522.01L141.012,1521.99L141.03,1521.96L141.049,1521.94L141.067,1521.91L141.086,1521.89L141.104,1521.87L141.123,1521.84L141.142,1521.82L141.162,1521.8L141.181,1521.77L141.2,1521.75L141.22,1521.73L141.24,1521.71L141.259,1521.68L141.279,1521.66L141.3,1521.64L141.32,1521.62L141.34,1521.6L141.361,1521.57L141.381,1521.55L141.402,1521.53L141.423,1521.51L141.444,1521.49L141.465,1521.46L141.486,1521.44L141.508,1521.42L141.529,1521.4L141.551,1521.38L141.573,1521.36L141.595,1521.34L141.617,1521.32L141.639,1521.3L141.661,1521.28L141.683,1521.26L141.706,1521.24L141.729,1521.22L141.751,1521.2L141.774,1521.18L141.797,1521.16L141.82,1521.14L141.844,1521.12L141.867,1521.1L141.89,1521.09L141.914,1521.07L141.938,1521.05L141.961,1521.03L141.985,1521.01L142.009,1520.99L142.033,1520.98L142.058,1520.96L142.082,1520.94L142.106,1520.92L142.131,1520.91L142.156,1520.89L142.18,1520.87L142.205,1520.85L142.23,1520.84L142.255,1520.82L142.281,1520.81L142.306,1520.79L142.331,1520.77L142.357,1520.76L142.382,1520.74L142.408,1520.72L142.434,1520.71L142.46,1520.69L142.486,1520.68L142.512,1520.66L142.538,1520.65L142.565,1520.63L142.591,1520.62L142.618,1520.6L142.644,1520.59L142.671,1520.58L142.698,1520.56L142.725,1520.55L142.752,1520.53L142.779,1520.52L142.806,1520.51L142.833,1520.49L142.86,1520.48L142.888,1520.47L142.915,1520.45L142.943,1520.44L142.971,1520.43L142.999,1520.42L143.027,1520.4L143.055,1520.39L143.083,1520.38L143.111,1520.37L143.139,1520.36L143.167,1520.35L143.196,1520.34L143.224,1520.33L143.253,1520.31L143.282,1520.3L143.31,1520.29L143.339,1520.28L143.368,1520.27L143.397,1520.26L143.426,1520.25L143.455,1520.24L143.485,1520.23L143.514,1520.23L143.543,1520.22L143.573,1520.21L143.602,1520.2L143.632,1520.19L143.662,1520.18L143.691,1520.17L143.721,1520.16L143.751,1520.16L143.781,1520.15L143.811,1520.14L143.841,1520.13L143.871,1520.13L143.902,1520.12L143.932,1520.12L143.962,1520.11L143.993,1520.1L144.023,1520.1L144.054,1520.09L144.085,1520.08L144.115,1520.08L144.146,1520.07L144.177,1520.07L144.208,1520.06L144.239,1520.06L144.27,1520.05L144.301,1520.05L144.332,1520.04L144.364,1520.04L144.395,1520.04L144.426,1520.03L144.458,1520.03L144.489,1520.03L144.521,1520.02L144.552,1520.02L144.584,1520.02L144.616,1520.02L144.647,1520.01L144.679,1520.01L144.711,1520.01L144.743,1520.01L144.775,1520.01L144.807,1520L144.839,1520L144.871,1520L144.903,1520L144.935,1520L144.968,1520L145,1520L160,1520L160.032,1520ZM145.003,1521.74L144.979,1521.74L144.958,1521.74L144.936,1521.74L144.915,1521.74L144.894,1521.74L144.873,1521.74L144.852,1521.74L144.831,1521.74L144.81,1521.74L144.789,1521.74L144.768,1521.74L144.748,1521.75L144.727,1521.75L144.706,1521.75L144.685,1521.75L144.665,1521.75L144.644,1521.76L144.624,1521.76L144.603,1521.76L144.582,1521.76L144.563,1521.77L144.542,1521.77L144.522,1521.77L144.501,1521.77L144.481,1521.78L144.461,1521.78L144.441,1521.78L144.421,1521.79L144.401,1521.79L144.381,1521.8L144.361,1521.8L144.341,1521.8L144.322,1521.81L144.301,1521.81L144.282,1521.82L144.263,1521.82L144.242,1521.82L144.223,1521.83L144.204,1521.83L144.184,1521.84L144.165,1521.84L144.145,1521.85L144.126,1521.85L144.107,1521.86L144.087,1521.87L144.068,1521.87L144.049,1521.88L144.03,1521.88L144.011,1521.89L143.992,1521.89L143.973,1521.9L143.954,1521.91L143.935,1521.91L143.916,1521.92L143.898,1521.93L143.879,1521.93L143.86,1521.94L143.842,1521.95L143.823,1521.95L143.805,1521.96L143.786,1521.97L143.768,1521.98L143.75,1521.98L143.731,1521.99L143.713,1522L143.695,1522.01L143.677,1522.02L143.659,1522.02L143.641,1522.03L143.623,1522.04L143.605,1522.05L143.587,1522.06L143.569,1522.07L143.552,1522.07L143.534,1522.08L143.516,1522.09L143.499,1522.1L143.482,1522.11L143.464,1522.12L143.446,1522.13L143.429,1522.14L143.412,1522.15L143.395,1522.16L143.378,1522.17L143.36,1522.18L143.344,1522.19L143.327,1522.2L143.31,1522.21L143.293,1522.22L143.276,1522.23L143.26,1522.24L143.243,1522.25L143.227,1522.26L143.211,1522.27L143.194,1522.28L143.177,1522.29L143.161,1522.3L143.145,1522.32L143.129,1522.33L143.113,1522.34L143.097,1522.35L143.081,1522.36L143.065,1522.37L143.049,1522.38L143.033,1522.4L143.018,1522.41L143.002,1522.42L142.986,1522.43L142.971,1522.44L142.956,1522.46L142.941,1522.47L142.925,1522.48L142.91,1522.49L142.895,1522.51L142.88,1522.52L142.865,1522.53L142.85,1522.55L142.836,1522.56L142.821,1522.57L142.807,1522.58L142.792,1522.6L142.777,1522.61L142.763,1522.62L142.749,1522.64L142.735,1522.65L142.721,1522.66L142.706,1522.68L142.693,1522.69L142.679,1522.71L142.665,1522.72L142.652,1522.73L142.638,1522.75L142.625,1522.76L142.611,1522.78L142.598,1522.79L142.585,1522.81L142.571,1522.82L142.558,1522.84L142.545,1522.85L142.532,1522.87L142.519,1522.88L142.506,1522.9L142.494,1522.91L142.482,1522.92L142.469,1522.94L142.456,1522.96L142.444,1522.97L142.432,1522.99L142.42,1523L142.408,1523.02L142.396,1523.03L142.384,1523.05L142.372,1523.07L142.361,1523.08L142.349,1523.1L142.338,1523.11L142.327,1523.13L142.315,1523.14L142.304,1523.16L142.293,1523.18L142.281,1523.19L142.271,1523.21L142.261,1523.23L142.249,1523.24L142.239,1523.26L142.229,1523.28L142.218,1523.29L142.208,1523.31L142.198,1523.33L142.187,1523.34L142.177,1523.36L142.168,1523.38L142.158,1523.39L142.148,1523.41L142.138,1523.43L142.129,1523.45L142.12,1523.46L142.11,1523.48L142.102,1523.5L142.092,1523.52L142.084,1523.53L142.074,1523.55L142.066,1523.57L142.057,1523.59L142.049,1523.61L142.04,1523.62L142.032,1523.64L142.024,1523.66L142.016,1523.68L142.007,1523.69L142,1523.71L141.992,1523.73L141.984,1523.75L141.977,1523.77L141.969,1523.79L141.962,1523.8L141.955,1523.82L141.948,1523.84L141.94,1523.86L141.934,1523.88L141.927,1523.9L141.92,1523.92L141.914,1523.93L141.907,1523.95L141.901,1523.97L141.895,1523.99L141.889,1524.01L141.883,1524.03L141.877,1524.05L141.871,1524.07L141.865,1524.09L141.86,1524.11L141.854,1524.12L141.849,1524.15L141.844,1524.16L141.839,1524.18L141.834,1524.2L141.829,1524.22L141.824,1524.24L141.82,1524.26L141.815,1524.28L141.811,1524.3L141.806,1524.32L141.802,1524.34L141.799,1524.36L141.795,1524.38L141.791,1524.4L141.787,1524.42L141.784,1524.44L141.78,1524.46L141.777,1524.48L141.774,1524.5L141.771,1524.52L141.768,1524.54L141.765,1524.56L141.763,1524.58L141.76,1524.6L141.757,1524.62L141.755,1524.64L141.753,1524.66L141.751,1524.68L141.749,1524.71L141.747,1524.73L141.746,1524.75L141.744,1524.77L141.743,1524.79L141.742,1524.81L141.74,1524.83L141.739,1524.85L141.739,1524.87L141.738,1524.89L141.737,1524.91L141.737,1524.94L141.736,1524.96L141.736,1524.98L141.736,1525L141.736,1540L141.736,1540.02L141.736,1540.04L141.737,1540.06L141.737,1540.09L141.738,1540.11L141.739,1540.13L141.739,1540.15L141.74,1540.17L141.742,1540.19L141.743,1540.21L141.744,1540.23L141.746,1540.25L141.747,1540.27L141.749,1540.29L141.751,1540.32L141.753,1540.34L141.755,1540.36L141.757,1540.38L141.76,1540.4L141.763,1540.42L141.765,1540.44L141.768,1540.46L141.771,1540.48L141.774,1540.5L141.777,1540.52L141.78,1540.54L141.784,1540.56L141.787,1540.58L141.791,1540.6L141.795,1540.62L141.799,1540.64L141.802,1540.66L141.806,1540.68L141.811,1540.7L141.815,1540.72L141.82,1540.74L141.824,1540.76L141.829,1540.78L141.834,1540.8L141.844,1540.84L141.849,1540.85L141.854,1540.88L141.86,1540.89L141.865,1540.91L141.871,1540.93L141.877,1540.95L141.883,1540.97L141.889,1540.99L141.895,1541.01L141.901,1541.03L141.907,1541.05L141.914,1541.07L141.92,1541.08L141.927,1541.1L141.934,1541.12L141.94,1541.14L141.948,1541.16L141.955,1541.18L141.962,1541.2L141.969,1541.21L141.977,1541.23L141.992,1541.27L142,1541.29L142.007,1541.31L142.024,1541.34L142.032,1541.36L142.04,1541.38L142.049,1541.39L142.057,1541.41L142.066,1541.43L142.083,1541.47L142.102,1541.5L142.11,1541.52L142.129,1541.55L142.138,1541.57L142.158,1541.61L142.168,1541.62L142.177,1541.64L142.187,1541.66L142.198,1541.67L142.208,1541.69L142.218,1541.71L142.229,1541.72L142.239,1541.74L142.249,1541.76L142.26,1541.77L142.271,1541.79L142.282,1541.81L142.293,1541.82L142.304,1541.84L142.315,1541.86L142.338,1541.89L142.361,1541.92L142.372,1541.93L142.384,1541.95L142.396,1541.97L142.408,1541.98L142.42,1542L142.432,1542.01L142.444,1542.03L142.456,1542.04L142.469,1542.06L142.482,1542.08L142.494,1542.09L142.506,1542.1L142.519,1542.12L142.532,1542.13L142.545,1542.15L142.558,1542.16L142.571,1542.18L142.585,1542.19L142.598,1542.21L142.611,1542.22L142.625,1542.24L142.638,1542.25L142.665,1542.28L142.693,1542.31L142.706,1542.32L142.721,1542.34L142.735,1542.35L142.749,1542.36L142.763,1542.38L142.777,1542.39L142.807,1542.42L142.821,1542.43L142.836,1542.44L142.85,1542.45L142.865,1542.47L142.881,1542.48L142.896,1542.49L142.91,1542.51L142.925,1542.52L142.941,1542.53L142.956,1542.54L142.971,1542.56L142.986,1542.57L143.002,1542.58L143.018,1542.59L143.033,1542.6L143.049,1542.62L143.065,1542.63L143.081,1542.64L143.097,1542.65L143.113,1542.66L143.129,1542.67L143.145,1542.68L143.161,1542.7L143.177,1542.71L143.194,1542.72L143.21,1542.73L143.227,1542.74L143.243,1542.75L143.26,1542.76L143.276,1542.77L143.293,1542.78L143.31,1542.79L143.327,1542.8L143.344,1542.81L143.36,1542.82L143.395,1542.84L143.412,1542.85L143.429,1542.86L143.446,1542.87L143.464,1542.88L143.482,1542.89L143.499,1542.9L143.516,1542.91L143.534,1542.92L143.552,1542.93L143.57,1542.93L143.587,1542.94L143.605,1542.95L143.623,1542.96L143.641,1542.97L143.659,1542.98L143.677,1542.98L143.695,1542.99L143.713,1543L143.731,1543.01L143.75,1543.02L143.768,1543.02L143.786,1543.03L143.805,1543.04L143.824,1543.05L143.842,1543.05L143.86,1543.06L143.879,1543.07L143.898,1543.07L143.916,1543.08L143.935,1543.09L143.954,1543.09L143.973,1543.1L143.992,1543.11L144.011,1543.11L144.03,1543.12L144.049,1543.12L144.068,1543.13L144.088,1543.13L144.107,1543.14L144.125,1543.15L144.145,1543.15L144.165,1543.16L144.184,1543.16L144.204,1543.17L144.223,1543.17L144.242,1543.18L144.262,1543.18L144.282,1543.18L144.302,1543.19L144.322,1543.19L144.341,1543.2L144.361,1543.2L144.381,1543.2L144.401,1543.21L144.421,1543.21L144.441,1543.22L144.461,1543.22L144.481,1543.22L144.501,1543.23L144.522,1543.23L144.542,1543.23L144.562,1543.24L144.582,1543.24L144.603,1543.24L144.624,1543.24L144.644,1543.25L144.665,1543.25L144.685,1543.25L144.706,1543.25L144.727,1543.25L144.748,1543.25L144.768,1543.26L144.789,1543.26L144.81,1543.26L144.831,1543.26L144.852,1543.26L144.872,1543.26L144.894,1543.26L144.915,1543.26L144.936,1543.26L144.958,1543.26L144.979,1543.26L145.003,1543.26L159.997,1543.26L160.021,1543.26L160.042,1543.26L160.064,1543.26L160.085,1543.26L160.106,1543.26L160.128,1543.26L160.148,1543.26L160.169,1543.26L160.19,1543.26L160.211,1543.26L160.232,1543.26L160.252,1543.25L160.273,1543.25L160.294,1543.25L160.315,1543.25L160.335,1543.25L160.356,1543.25L160.376,1543.24L160.397,1543.24L160.418,1543.24L160.438,1543.24L160.458,1543.23L160.478,1543.23L160.498,1543.23L160.519,1543.22L160.539,1543.22L160.559,1543.22L160.579,1543.21L160.599,1543.21L160.619,1543.2L160.639,1543.2L160.659,1543.2L160.678,1543.19L160.698,1543.19L160.718,1543.18L160.738,1543.18L160.757,1543.18L160.777,1543.17L160.797,1543.17L160.816,1543.16L160.835,1543.16L160.855,1543.15L160.875,1543.15L160.893,1543.14L160.912,1543.13L160.932,1543.13L160.951,1543.12L160.97,1543.12L160.989,1543.11L161.008,1543.11L161.027,1543.1L161.046,1543.09L161.065,1543.09L161.084,1543.08L161.103,1543.07L161.121,1543.07L161.14,1543.06L161.158,1543.05L161.177,1543.05L161.195,1543.04L161.213,1543.03L161.232,1543.02L161.251,1543.02L161.269,1543.01L161.287,1543L161.305,1542.99L161.323,1542.98L161.342,1542.98L161.359,1542.97L161.377,1542.96L161.395,1542.95L161.413,1542.94L161.43,1542.93L161.448,1542.93L161.466,1542.92L161.484,1542.91L161.501,1542.9L161.518,1542.89L161.536,1542.88L161.554,1542.87L161.571,1542.86L161.588,1542.85L161.605,1542.84L161.623,1542.83L161.64,1542.82L161.656,1542.81L161.673,1542.8L161.69,1542.79L161.707,1542.78L161.724,1542.77L161.74,1542.76L161.757,1542.75L161.773,1542.74L161.79,1542.73L161.806,1542.72L161.823,1542.71L161.839,1542.7L161.855,1542.68L161.871,1542.67L161.887,1542.66L161.903,1542.65L161.919,1542.64L161.935,1542.63L161.951,1542.62L161.967,1542.6L161.982,1542.59L161.997,1542.58L162.014,1542.57L162.029,1542.56L162.044,1542.54L162.059,1542.53L162.074,1542.52L162.09,1542.51L162.105,1542.49L162.119,1542.48L162.134,1542.47L162.149,1542.45L162.164,1542.44L162.179,1542.43L162.193,1542.42L162.208,1542.4L162.223,1542.39L162.237,1542.38L162.251,1542.36L162.265,1542.35L162.279,1542.34L162.294,1542.32L162.307,1542.31L162.321,1542.29L162.335,1542.28L162.349,1542.27L162.362,1542.25L162.375,1542.24L162.389,1542.22L162.402,1542.21L162.415,1542.19L162.429,1542.18L162.442,1542.16L162.455,1542.15L162.468,1542.13L162.481,1542.12L162.494,1542.1L162.506,1542.09L162.518,1542.08L162.531,1542.06L162.544,1542.04L162.556,1542.03L162.568,1542.01L162.58,1542L162.592,1541.98L162.604,1541.97L162.616,1541.95L162.627,1541.93L162.639,1541.92L162.651,1541.9L162.662,1541.89L162.674,1541.87L162.685,1541.86L162.696,1541.84L162.707,1541.82L162.718,1541.81L162.729,1541.79L162.74,1541.77L162.75,1541.76L162.761,1541.74L162.772,1541.72L162.782,1541.71L162.792,1541.69L162.802,1541.67L162.813,1541.66L162.823,1541.64L162.832,1541.62L162.842,1541.61L162.852,1541.59L162.861,1541.57L162.871,1541.55L162.881,1541.54L162.889,1541.52L162.898,1541.5L162.908,1541.48L162.917,1541.47L162.925,1541.45L162.934,1541.43L162.943,1541.41L162.951,1541.39L162.96,1541.38L162.968,1541.36L162.976,1541.34L162.984,1541.32L162.992,1541.31L163,1541.29L163.008,1541.27L163.016,1541.25L163.023,1541.23L163.031,1541.21L163.038,1541.2L163.045,1541.18L163.052,1541.16L163.06,1541.14L163.066,1541.12L163.073,1541.1L163.08,1541.08L163.086,1541.07L163.093,1541.05L163.099,1541.03L163.105,1541.01L163.111,1540.99L163.117,1540.97L163.123,1540.95L163.129,1540.93L163.135,1540.91L163.14,1540.89L163.146,1540.88L163.151,1540.86L163.156,1540.84L163.161,1540.82L163.166,1540.8L163.171,1540.78L163.176,1540.76L163.18,1540.74L163.185,1540.72L163.189,1540.7L163.193,1540.68L163.198,1540.66L163.202,1540.64L163.205,1540.62L163.209,1540.6L163.213,1540.58L163.216,1540.56L163.22,1540.54L163.223,1540.52L163.226,1540.5L163.229,1540.48L163.232,1540.46L163.235,1540.44L163.238,1540.42L163.24,1540.4L163.243,1540.38L163.245,1540.36L163.247,1540.34L163.249,1540.32L163.251,1540.29L163.253,1540.27L163.254,1540.25L163.256,1540.23L163.257,1540.21L163.258,1540.19L163.26,1540.17L163.261,1540.15L163.261,1540.13L163.262,1540.11L163.263,1540.09L163.263,1540.06L163.264,1540.04L163.264,1540.02L163.264,1540L163.264,1525L163.264,1524.98L163.264,1524.96L163.263,1524.94L163.263,1524.91L163.262,1524.89L163.261,1524.87L163.261,1524.85L163.26,1524.83L163.258,1524.81L163.257,1524.79L163.256,1524.77L163.254,1524.75L163.253,1524.73L163.251,1524.71L163.249,1524.68L163.247,1524.66L163.245,1524.64L163.243,1524.62L163.24,1524.6L163.238,1524.58L163.235,1524.56L163.232,1524.54L163.229,1524.52L163.226,1524.5L163.223,1524.48L163.22,1524.46L163.216,1524.44L163.213,1524.42L163.209,1524.4L163.205,1524.38L163.202,1524.36L163.198,1524.34L163.193,1524.32L163.189,1524.3L163.185,1524.28L163.18,1524.26L163.176,1524.24L163.171,1524.22L163.166,1524.2L163.161,1524.18L163.156,1524.16L163.151,1524.14L163.146,1524.12L163.14,1524.11L163.135,1524.09L163.129,1524.07L163.123,1524.05L163.117,1524.03L163.111,1524.01L163.105,1523.99L163.099,1523.97L163.093,1523.95L163.086,1523.93L163.08,1523.92L163.073,1523.9L163.066,1523.88L163.06,1523.86L163.052,1523.84L163.045,1523.82L163.038,1523.8L163.031,1523.79L163.023,1523.77L163.016,1523.75L163.008,1523.73L163,1523.71L162.992,1523.69L162.984,1523.68L162.976,1523.66L162.968,1523.64L162.96,1523.62L162.951,1523.61L162.943,1523.59L162.934,1523.57L162.925,1523.55L162.916,1523.53L162.908,1523.52L162.898,1523.5L162.889,1523.48L162.881,1523.46L162.871,1523.45L162.861,1523.43L162.852,1523.41L162.842,1523.39L162.832,1523.38L162.823,1523.36L162.813,1523.34L162.802,1523.33L162.792,1523.31L162.782,1523.29L162.772,1523.28L162.761,1523.26L162.75,1523.24L162.739,1523.23L162.729,1523.21L162.719,1523.19L162.707,1523.18L162.696,1523.16L162.685,1523.14L162.674,1523.13L162.662,1523.11L162.651,1523.1L162.639,1523.08L162.627,1523.07L162.616,1523.05L162.604,1523.03L162.592,1523.02L162.58,1523L162.568,1522.99L162.556,1522.97L162.544,1522.96L162.531,1522.94L162.518,1522.92L162.506,1522.91L162.494,1522.9L162.481,1522.88L162.468,1522.87L162.455,1522.85L162.442,1522.84L162.429,1522.82L162.415,1522.81L162.402,1522.79L162.389,1522.78L162.375,1522.76L162.362,1522.75L162.349,1522.74L162.335,1522.72L162.321,1522.71L162.307,1522.69L162.294,1522.68L162.279,1522.66L162.265,1522.65L162.251,1522.64L162.237,1522.62L162.223,1522.61L162.208,1522.6L162.193,1522.58L162.179,1522.57L162.164,1522.56L162.149,1522.55L162.134,1522.53L162.12,1522.52L162.105,1522.51L162.09,1522.49L162.074,1522.48L162.059,1522.47L162.044,1522.46L162.029,1522.44L162.014,1522.43L161.997,1522.42L161.982,1522.41L161.967,1522.4L161.951,1522.38L161.935,1522.37L161.919,1522.36L161.903,1522.35L161.887,1522.34L161.871,1522.33L161.855,1522.32L161.839,1522.3L161.823,1522.29L161.806,1522.28L161.789,1522.27L161.773,1522.26L161.757,1522.25L161.74,1522.24L161.724,1522.23L161.707,1522.22L161.69,1522.21L161.673,1522.2L161.656,1522.19L161.64,1522.18L161.623,1522.17L161.605,1522.16L161.588,1522.15L161.571,1522.14L161.554,1522.13L161.536,1522.12L161.518,1522.11L161.501,1522.1L161.484,1522.09L161.466,1522.08L161.448,1522.07L161.431,1522.07L161.413,1522.06L161.395,1522.05L161.377,1522.04L161.359,1522.03L161.342,1522.02L161.323,1522.02L161.305,1522.01L161.287,1522L161.269,1521.99L161.251,1521.98L161.232,1521.98L161.213,1521.97L161.195,1521.96L161.177,1521.95L161.158,1521.95L161.139,1521.94L161.121,1521.93L161.103,1521.93L161.084,1521.92L161.065,1521.91L161.046,1521.91L161.027,1521.9L161.008,1521.89L160.989,1521.89L160.97,1521.88L160.951,1521.88L160.932,1521.87L160.913,1521.87L160.893,1521.86L160.874,1521.85L160.855,1521.85L160.835,1521.84L160.816,1521.84L160.797,1521.83L160.777,1521.83L160.757,1521.82L160.737,1521.82L160.718,1521.82L160.699,1521.81L160.678,1521.81L160.659,1521.8L160.639,1521.8L160.619,1521.8L160.599,1521.79L160.579,1521.79L160.559,1521.78L160.539,1521.78L160.519,1521.78L160.498,1521.77L160.478,1521.77L160.458,1521.77L160.437,1521.77L160.418,1521.76L160.397,1521.76L160.376,1521.76L160.356,1521.76L160.335,1521.75L160.315,1521.75L160.294,1521.75L160.273,1521.75L160.252,1521.75L160.232,1521.74L160.211,1521.74L160.19,1521.74L160.169,1521.74L160.148,1521.74L160.127,1521.74L160.106,1521.74L160.085,1521.74L160.064,1521.74L160.042,1521.74L160.021,1521.74L159.997,1521.74L145.003,1521.74Z" style="fill:white;"/>
                </g>
                <g id="Checked-Icon" serif:id="Checked Icon" transform="matrix(6.66973,0,0,6.66973,2261.74,-9033.73)">
                    <path d="M158.225,1527.31L150.108,1535.5L146.764,1532.12C146.36,1531.71 145.705,1531.71 145.301,1532.12C144.897,1532.53 144.897,1533.19 145.301,1533.6L149.355,1537.7C149.563,1537.9 149.836,1538.01 150.108,1538C150.38,1538.01 150.654,1537.9 150.861,1537.7L159.688,1528.78C160.092,1528.38 160.092,1527.71 159.688,1527.31C159.284,1526.9 158.629,1526.9 158.225,1527.31Z" style="fill:white;"/>
                </g>
            </g>
        </g>
    </g>
</svg>
