<?xml version="1.0" encoding="UTF-8" standalone="no"?>
<!DOCTYPE svg PUBLIC "-//W3C//DTD SVG 1.1//EN" "http://www.w3.org/Graphics/SVG/1.1/DTD/svg11.dtd">
<svg width="100%" height="100%" viewBox="0 0 101 101" version="1.1" xmlns="http://www.w3.org/2000/svg" xmlns:xlink="http://www.w3.org/1999/xlink" xml:space="preserve" xmlns:serif="http://www.serif.com/" style="fill-rule:evenodd;clip-rule:evenodd;stroke-linejoin:round;stroke-miterlimit:1.41421;">
    <g transform="matrix(1,0,0,1,-1219,-1714)">
        <g transform="matrix(0.666667,0,0,0.666667,763.2,593.633)">
            <g id="Base" transform="matrix(6,0,0,6,-1272,-7439)">
                <circle cx="338.5" cy="1532.5" r="12.5" style="fill:rgb(68,67,66);"/>
                <path d="M338.581,1520L338.661,1520L338.742,1520L338.822,1520L338.903,1520.01L338.983,1520.01L339.063,1520.01L339.143,1520.02L339.223,1520.02L339.302,1520.03L339.382,1520.03L339.461,1520.04L339.54,1520.04L339.62,1520.05L339.698,1520.06L339.777,1520.07L339.856,1520.07L339.934,1520.08L340.013,1520.09L340.091,1520.1L340.169,1520.11L340.247,1520.12L340.325,1520.13L340.403,1520.14L340.48,1520.16L340.557,1520.17L340.635,1520.18L340.712,1520.19L340.788,1520.21L340.865,1520.22L340.942,1520.24L341.018,1520.25L341.094,1520.27L341.17,1520.29L341.246,1520.3L341.322,1520.32L341.397,1520.34L341.472,1520.36L341.547,1520.38L341.622,1520.39L341.697,1520.41L341.772,1520.43L341.846,1520.45L341.92,1520.48L341.994,1520.5L342.068,1520.52L342.142,1520.54L342.215,1520.56L342.289,1520.59L342.362,1520.61L342.435,1520.63L342.507,1520.66L342.58,1520.68L342.652,1520.71L342.724,1520.73L342.796,1520.76L342.868,1520.79L342.939,1520.81L343.01,1520.84L343.082,1520.87L343.152,1520.9L343.223,1520.92L343.293,1520.95L343.364,1520.98L343.434,1521.01L343.503,1521.04L343.573,1521.07L343.642,1521.11L343.711,1521.14L343.78,1521.17L343.849,1521.2L343.917,1521.23L343.985,1521.27L344.053,1521.3L344.121,1521.33L344.189,1521.37L344.256,1521.4L344.323,1521.44L344.39,1521.47L344.456,1521.51L344.522,1521.55L344.589,1521.58L344.654,1521.62L344.72,1521.66L344.785,1521.69L344.85,1521.73L344.915,1521.77L344.98,1521.81L345.044,1521.85L345.108,1521.89L345.172,1521.93L345.235,1521.97L345.299,1522.01L345.362,1522.05L345.424,1522.09L345.487,1522.14L345.549,1522.18L345.611,1522.22L345.673,1522.26L345.734,1522.31L345.795,1522.35L345.856,1522.39L345.917,1522.44L345.977,1522.49L346.037,1522.53L346.097,1522.58L346.156,1522.62L346.215,1522.67L346.274,1522.71L346.333,1522.76L346.391,1522.81L346.449,1522.86L346.507,1522.9L346.564,1522.95L346.622,1523L346.678,1523.05L346.735,1523.1L346.791,1523.15L346.847,1523.2L346.903,1523.25L346.958,1523.3L347.013,1523.35L347.068,1523.4L347.122,1523.45L347.177,1523.51L347.23,1523.56L347.284,1523.61L347.337,1523.66L347.39,1523.72L347.443,1523.77L347.495,1523.82L347.547,1523.88L347.598,1523.93L347.65,1523.99L347.7,1524.04L347.751,1524.1L347.801,1524.15L347.851,1524.21L347.901,1524.27L347.95,1524.32L347.999,1524.38L348.048,1524.44L348.096,1524.49L348.144,1524.55L348.192,1524.61L348.239,1524.67L348.286,1524.73L348.332,1524.79L348.379,1524.84L348.425,1524.9L348.47,1524.96L348.515,1525.02L348.56,1525.08L348.605,1525.14L348.649,1525.2L348.693,1525.27L348.736,1525.33L348.779,1525.39L348.822,1525.45L348.864,1525.51L348.906,1525.58L348.948,1525.64L348.989,1525.7L349.03,1525.77L349.07,1525.83L349.11,1525.89L349.15,1525.96L349.189,1526.02L349.228,1526.09L349.267,1526.15L349.305,1526.21L349.343,1526.28L349.38,1526.35L349.417,1526.41L349.454,1526.48L349.49,1526.54L349.526,1526.61L349.562,1526.68L349.597,1526.74L349.632,1526.81L349.666,1526.88L349.7,1526.95L349.733,1527.02L349.767,1527.08L349.799,1527.15L349.832,1527.22L349.864,1527.29L349.895,1527.36L349.926,1527.43L349.957,1527.5L349.987,1527.57L350.017,1527.64L350.046,1527.71L350.076,1527.78L350.104,1527.85L350.132,1527.92L350.16,1527.99L350.188,1528.06L350.214,1528.13L350.241,1528.2L350.267,1528.28L350.293,1528.35L350.318,1528.42L350.343,1528.49L350.367,1528.57L350.391,1528.64L350.415,1528.71L350.438,1528.79L350.46,1528.86L350.482,1528.93L350.504,1529.01L350.525,1529.08L350.546,1529.15L350.567,1529.23L350.587,1529.3L350.606,1529.38L350.625,1529.45L350.644,1529.53L350.662,1529.6L350.68,1529.68L350.697,1529.75L350.714,1529.83L350.73,1529.91L350.746,1529.98L350.761,1530.06L350.776,1530.13L350.791,1530.21L350.805,1530.29L350.818,1530.37L350.831,1530.44L350.844,1530.52L350.856,1530.6L350.867,1530.67L350.879,1530.75L350.889,1530.83L350.899,1530.91L350.909,1530.99L350.918,1531.07L350.927,1531.14L350.935,1531.22L350.943,1531.3L350.95,1531.38L350.957,1531.46L350.964,1531.54L350.969,1531.62L350.975,1531.7L350.979,1531.78L350.984,1531.86L350.988,1531.94L350.991,1532.02L350.994,1532.1L350.996,1532.18L350.998,1532.26L350.999,1532.34L351,1532.42L351,1532.5L351,1532.58L350.999,1532.66L350.998,1532.74L350.996,1532.82L350.994,1532.9L350.991,1532.98L350.988,1533.06L350.984,1533.14L350.979,1533.22L350.975,1533.3L350.969,1533.38L350.964,1533.46L350.957,1533.54L350.95,1533.62L350.943,1533.7L350.935,1533.78L350.927,1533.86L350.918,1533.93L350.909,1534.01L350.899,1534.09L350.889,1534.17L350.879,1534.25L350.867,1534.33L350.856,1534.4L350.844,1534.48L350.831,1534.56L350.818,1534.63L350.805,1534.71L350.791,1534.79L350.776,1534.87L350.761,1534.94L350.746,1535.02L350.73,1535.09L350.714,1535.17L350.697,1535.25L350.68,1535.32L350.662,1535.4L350.644,1535.47L350.625,1535.55L350.606,1535.62L350.587,1535.7L350.567,1535.77L350.546,1535.85L350.525,1535.92L350.504,1535.99L350.482,1536.07L350.46,1536.14L350.438,1536.22L350.415,1536.29L350.391,1536.36L350.367,1536.43L350.343,1536.51L350.318,1536.58L350.293,1536.65L350.267,1536.72L350.241,1536.8L350.214,1536.87L350.188,1536.94L350.16,1537.01L350.132,1537.08L350.104,1537.15L350.076,1537.22L350.046,1537.29L350.017,1537.36L349.987,1537.43L349.957,1537.5L349.926,1537.57L349.895,1537.64L349.864,1537.71L349.832,1537.78L349.799,1537.85L349.767,1537.92L349.733,1537.99L349.7,1538.05L349.666,1538.12L349.632,1538.19L349.597,1538.26L349.562,1538.32L349.526,1538.39L349.49,1538.46L349.454,1538.52L349.417,1538.59L349.38,1538.65L349.343,1538.72L349.305,1538.79L349.267,1538.85L349.228,1538.91L349.189,1538.98L349.15,1539.04L349.11,1539.11L349.07,1539.17L349.03,1539.24L348.989,1539.3L348.948,1539.36L348.906,1539.42L348.864,1539.49L348.822,1539.55L348.779,1539.61L348.736,1539.67L348.693,1539.73L348.649,1539.8L348.605,1539.86L348.56,1539.92L348.515,1539.98L348.47,1540.04L348.425,1540.1L348.379,1540.16L348.332,1540.22L348.286,1540.27L348.239,1540.33L348.192,1540.39L348.144,1540.45L348.096,1540.51L348.048,1540.56L347.999,1540.62L347.95,1540.68L347.901,1540.74L347.851,1540.79L347.801,1540.85L347.751,1540.9L347.7,1540.96L347.65,1541.01L347.598,1541.07L347.547,1541.12L347.495,1541.18L347.443,1541.23L347.39,1541.28L347.337,1541.34L347.284,1541.39L347.23,1541.44L347.177,1541.5L347.122,1541.55L347.068,1541.6L347.013,1541.65L346.958,1541.7L346.903,1541.75L346.847,1541.8L346.791,1541.85L346.735,1541.9L346.678,1541.95L346.622,1542L346.564,1542.05L346.507,1542.1L346.449,1542.14L346.391,1542.19L346.333,1542.24L346.274,1542.29L346.215,1542.33L346.156,1542.38L346.097,1542.42L346.037,1542.47L345.977,1542.52L345.917,1542.56L345.856,1542.61L345.795,1542.65L345.734,1542.69L345.673,1542.74L345.611,1542.78L345.549,1542.82L345.487,1542.86L345.424,1542.91L345.362,1542.95L345.299,1542.99L345.235,1543.03L345.172,1543.07L345.108,1543.11L345.044,1543.15L344.98,1543.19L344.915,1543.23L344.85,1543.27L344.785,1543.31L344.72,1543.34L344.654,1543.38L344.589,1543.42L344.522,1543.45L344.456,1543.49L344.39,1543.53L344.323,1543.56L344.256,1543.6L344.189,1543.63L344.121,1543.67L344.053,1543.7L343.985,1543.73L343.917,1543.77L343.849,1543.8L343.78,1543.83L343.711,1543.86L343.642,1543.89L343.573,1543.93L343.503,1543.96L343.434,1543.99L343.364,1544.02L343.293,1544.05L343.223,1544.08L343.152,1544.1L343.082,1544.13L343.01,1544.16L342.939,1544.19L342.868,1544.21L342.796,1544.24L342.724,1544.27L342.652,1544.29L342.58,1544.32L342.507,1544.34L342.435,1544.37L342.362,1544.39L342.289,1544.41L342.215,1544.44L342.142,1544.46L342.068,1544.48L341.994,1544.5L341.92,1544.53L341.846,1544.55L341.772,1544.57L341.697,1544.59L341.622,1544.61L341.547,1544.62L341.472,1544.64L341.397,1544.66L341.322,1544.68L341.246,1544.7L341.17,1544.71L341.094,1544.73L341.018,1544.75L340.942,1544.76L340.865,1544.78L340.788,1544.79L340.712,1544.81L340.635,1544.82L340.557,1544.83L340.48,1544.84L340.403,1544.86L340.325,1544.87L340.247,1544.88L340.169,1544.89L340.091,1544.9L340.013,1544.91L339.934,1544.92L339.856,1544.93L339.777,1544.93L339.698,1544.94L339.62,1544.95L339.54,1544.96L339.461,1544.96L339.382,1544.97L339.302,1544.98L339.223,1544.98L339.143,1544.98L339.063,1544.99L338.983,1544.99L338.903,1544.99L338.822,1545L338.742,1545L338.661,1545L338.581,1545L338.5,1545L338.419,1545L338.339,1545L338.258,1545L338.178,1545L338.097,1544.99L338.017,1544.99L337.937,1544.99L337.857,1544.98L337.777,1544.98L337.698,1544.98L337.618,1544.97L337.539,1544.96L337.46,1544.96L337.38,1544.95L337.302,1544.94L337.223,1544.93L337.144,1544.93L337.066,1544.92L336.987,1544.91L336.909,1544.9L336.831,1544.89L336.753,1544.88L336.675,1544.87L336.597,1544.86L336.52,1544.84L336.443,1544.83L336.365,1544.82L336.288,1544.81L336.212,1544.79L336.135,1544.78L336.058,1544.76L335.982,1544.75L335.906,1544.73L335.83,1544.71L335.754,1544.7L335.678,1544.68L335.603,1544.66L335.528,1544.64L335.453,1544.62L335.378,1544.61L335.303,1544.59L335.228,1544.57L335.154,1544.55L335.08,1544.53L335.006,1544.5L334.932,1544.48L334.858,1544.46L334.785,1544.44L334.711,1544.41L334.638,1544.39L334.565,1544.37L334.493,1544.34L334.42,1544.32L334.348,1544.29L334.276,1544.27L334.204,1544.24L334.132,1544.21L334.061,1544.19L333.99,1544.16L333.918,1544.13L333.848,1544.1L333.777,1544.08L333.707,1544.05L333.636,1544.02L333.566,1543.99L333.497,1543.96L333.427,1543.93L333.358,1543.89L333.289,1543.86L333.22,1543.83L333.151,1543.8L333.083,1543.77L333.015,1543.73L332.947,1543.7L332.879,1543.67L332.811,1543.63L332.744,1543.6L332.677,1543.56L332.61,1543.53L332.544,1543.49L332.478,1543.45L332.411,1543.42L332.346,1543.38L332.28,1543.34L332.215,1543.31L332.15,1543.27L332.085,1543.23L332.02,1543.19L331.956,1543.15L331.892,1543.11L331.828,1543.07L331.765,1543.03L331.701,1542.99L331.638,1542.95L331.576,1542.91L331.513,1542.86L331.451,1542.82L331.389,1542.78L331.327,1542.74L331.266,1542.69L331.205,1542.65L331.144,1542.61L331.083,1542.56L331.023,1542.52L330.963,1542.47L330.903,1542.42L330.844,1542.38L330.785,1542.33L330.726,1542.29L330.667,1542.24L330.609,1542.19L330.551,1542.14L330.493,1542.1L330.436,1542.05L330.378,1542L330.322,1541.95L330.265,1541.9L330.209,1541.85L330.153,1541.8L330.097,1541.75L330.042,1541.7L329.987,1541.65L329.932,1541.6L329.878,1541.55L329.823,1541.5L329.77,1541.44L329.716,1541.39L329.663,1541.34L329.61,1541.28L329.557,1541.23L329.505,1541.18L329.453,1541.12L329.402,1541.07L329.35,1541.01L329.3,1540.96L329.249,1540.9L329.199,1540.85L329.149,1540.79L329.099,1540.74L329.05,1540.68L329.001,1540.62L328.952,1540.56L328.904,1540.51L328.856,1540.45L328.808,1540.39L328.761,1540.33L328.714,1540.27L328.668,1540.22L328.621,1540.16L328.575,1540.1L328.53,1540.04L328.485,1539.98L328.44,1539.92L328.395,1539.86L328.351,1539.8L328.307,1539.73L328.264,1539.67L328.221,1539.61L328.178,1539.55L328.136,1539.49L328.094,1539.42L328.052,1539.36L328.011,1539.3L327.97,1539.24L327.93,1539.17L327.89,1539.11L327.85,1539.04L327.811,1538.98L327.772,1538.91L327.733,1538.85L327.695,1538.79L327.657,1538.72L327.62,1538.65L327.583,1538.59L327.546,1538.52L327.51,1538.46L327.474,1538.39L327.438,1538.32L327.403,1538.26L327.368,1538.19L327.334,1538.12L327.3,1538.05L327.267,1537.99L327.233,1537.92L327.201,1537.85L327.168,1537.78L327.136,1537.71L327.105,1537.64L327.074,1537.57L327.043,1537.5L327.013,1537.43L326.983,1537.36L326.954,1537.29L326.924,1537.22L326.896,1537.15L326.868,1537.08L326.84,1537.01L326.812,1536.94L326.786,1536.87L326.759,1536.8L326.733,1536.72L326.707,1536.65L326.682,1536.58L326.657,1536.51L326.633,1536.43L326.609,1536.36L326.585,1536.29L326.562,1536.22L326.54,1536.14L326.518,1536.07L326.496,1535.99L326.475,1535.92L326.454,1535.85L326.433,1535.77L326.413,1535.7L326.394,1535.62L326.375,1535.55L326.356,1535.47L326.338,1535.4L326.32,1535.32L326.303,1535.25L326.286,1535.17L326.27,1535.09L326.254,1535.02L326.239,1534.94L326.224,1534.87L326.209,1534.79L326.195,1534.71L326.182,1534.63L326.169,1534.56L326.156,1534.48L326.144,1534.4L326.133,1534.33L326.121,1534.25L326.111,1534.17L326.101,1534.09L326.091,1534.01L326.082,1533.93L326.073,1533.86L326.065,1533.78L326.057,1533.7L326.05,1533.62L326.043,1533.54L326.036,1533.46L326.031,1533.38L326.025,1533.3L326.021,1533.22L326.016,1533.14L326.012,1533.06L326.009,1532.98L326.006,1532.9L326.004,1532.82L326.002,1532.74L326.001,1532.66L326,1532.58L326,1532.5L326,1532.42L326.001,1532.34L326.002,1532.26L326.004,1532.18L326.006,1532.1L326.009,1532.02L326.012,1531.94L326.016,1531.86L326.021,1531.78L326.025,1531.7L326.031,1531.62L326.036,1531.54L326.043,1531.46L326.05,1531.38L326.057,1531.3L326.065,1531.22L326.073,1531.14L326.082,1531.07L326.091,1530.99L326.101,1530.91L326.111,1530.83L326.121,1530.75L326.133,1530.67L326.144,1530.6L326.156,1530.52L326.169,1530.44L326.182,1530.37L326.195,1530.29L326.209,1530.21L326.224,1530.13L326.239,1530.06L326.254,1529.98L326.27,1529.91L326.286,1529.83L326.303,1529.75L326.32,1529.68L326.338,1529.6L326.356,1529.53L326.375,1529.45L326.394,1529.38L326.413,1529.3L326.433,1529.23L326.454,1529.15L326.475,1529.08L326.496,1529.01L326.518,1528.93L326.54,1528.86L326.562,1528.79L326.585,1528.71L326.609,1528.64L326.633,1528.57L326.657,1528.49L326.682,1528.42L326.707,1528.35L326.733,1528.28L326.759,1528.2L326.786,1528.13L326.812,1528.06L326.84,1527.99L326.868,1527.92L326.896,1527.85L326.924,1527.78L326.954,1527.71L326.983,1527.64L327.013,1527.57L327.043,1527.5L327.074,1527.43L327.105,1527.36L327.136,1527.29L327.168,1527.22L327.201,1527.15L327.233,1527.08L327.267,1527.02L327.3,1526.95L327.334,1526.88L327.368,1526.81L327.403,1526.74L327.438,1526.68L327.474,1526.61L327.51,1526.54L327.546,1526.48L327.583,1526.41L327.62,1526.35L327.657,1526.28L327.695,1526.21L327.733,1526.15L327.772,1526.09L327.811,1526.02L327.85,1525.96L327.89,1525.89L327.93,1525.83L327.97,1525.77L328.011,1525.7L328.052,1525.64L328.094,1525.58L328.136,1525.51L328.178,1525.45L328.221,1525.39L328.264,1525.33L328.307,1525.27L328.351,1525.2L328.395,1525.14L328.44,1525.08L328.485,1525.02L328.53,1524.96L328.575,1524.9L328.621,1524.84L328.668,1524.79L328.714,1524.73L328.761,1524.67L328.808,1524.61L328.856,1524.55L328.904,1524.49L328.952,1524.44L329.001,1524.38L329.05,1524.32L329.099,1524.27L329.149,1524.21L329.199,1524.15L329.249,1524.1L329.3,1524.04L329.35,1523.99L329.402,1523.93L329.453,1523.88L329.505,1523.82L329.557,1523.77L329.61,1523.72L329.663,1523.66L329.716,1523.61L329.77,1523.56L329.823,1523.51L329.878,1523.45L329.932,1523.4L329.987,1523.35L330.042,1523.3L330.097,1523.25L330.153,1523.2L330.209,1523.15L330.265,1523.1L330.322,1523.05L330.378,1523L330.436,1522.95L330.493,1522.9L330.551,1522.86L330.609,1522.81L330.667,1522.76L330.726,1522.71L330.785,1522.67L330.844,1522.62L330.903,1522.58L330.963,1522.53L331.023,1522.49L331.083,1522.44L331.144,1522.39L331.205,1522.35L331.266,1522.31L331.327,1522.26L331.389,1522.22L331.451,1522.18L331.513,1522.14L331.576,1522.09L331.638,1522.05L331.701,1522.01L331.765,1521.97L331.828,1521.93L331.892,1521.89L331.956,1521.85L332.02,1521.81L332.085,1521.77L332.15,1521.73L332.215,1521.69L332.28,1521.66L332.346,1521.62L332.411,1521.58L332.478,1521.55L332.544,1521.51L332.61,1521.47L332.677,1521.44L332.744,1521.4L332.811,1521.37L332.879,1521.33L332.947,1521.3L333.015,1521.27L333.083,1521.23L333.151,1521.2L333.22,1521.17L333.289,1521.14L333.358,1521.11L333.427,1521.07L333.497,1521.04L333.566,1521.01L333.636,1520.98L333.707,1520.95L333.777,1520.92L333.848,1520.9L333.918,1520.87L333.99,1520.84L334.061,1520.81L334.132,1520.79L334.204,1520.76L334.276,1520.73L334.348,1520.71L334.42,1520.68L334.493,1520.66L334.565,1520.63L334.638,1520.61L334.711,1520.59L334.785,1520.56L334.858,1520.54L334.932,1520.52L335.006,1520.5L335.08,1520.48L335.154,1520.45L335.228,1520.43L335.303,1520.41L335.378,1520.39L335.453,1520.38L335.528,1520.36L335.603,1520.34L335.678,1520.32L335.754,1520.3L335.83,1520.29L335.906,1520.27L335.982,1520.25L336.058,1520.24L336.135,1520.22L336.212,1520.21L336.288,1520.19L336.365,1520.18L336.443,1520.17L336.52,1520.16L336.597,1520.14L336.675,1520.13L336.753,1520.12L336.831,1520.11L336.909,1520.1L336.987,1520.09L337.066,1520.08L337.144,1520.07L337.223,1520.07L337.302,1520.06L337.38,1520.05L337.46,1520.04L337.539,1520.04L337.618,1520.03L337.698,1520.03L337.777,1520.02L337.857,1520.02L337.937,1520.01L338.017,1520.01L338.097,1520.01L338.178,1520L338.258,1520L338.339,1520L338.419,1520L338.5,1520L338.581,1520ZM338.426,1521.04L338.352,1521.04L338.278,1521.04L338.204,1521.05L338.13,1521.05L338.057,1521.05L337.983,1521.05L337.91,1521.06L337.837,1521.06L337.764,1521.07L337.691,1521.07L337.618,1521.08L337.545,1521.08L337.473,1521.09L337.4,1521.09L337.328,1521.1L337.256,1521.11L337.184,1521.12L337.112,1521.12L337.041,1521.13L336.969,1521.14L336.897,1521.15L336.826,1521.16L336.755,1521.17L336.684,1521.18L336.613,1521.2L336.542,1521.21L336.472,1521.22L336.401,1521.23L336.331,1521.25L336.261,1521.26L336.191,1521.28L336.122,1521.29L336.052,1521.3L335.982,1521.32L335.913,1521.34L335.844,1521.35L335.775,1521.37L335.706,1521.38L335.637,1521.4L335.569,1521.42L335.501,1521.44L335.432,1521.46L335.364,1521.48L335.297,1521.5L335.229,1521.52L335.162,1521.54L335.094,1521.56L335.027,1521.58L334.96,1521.6L334.893,1521.62L334.827,1521.64L334.76,1521.67L334.694,1521.69L334.628,1521.71L334.562,1521.74L334.497,1521.76L334.431,1521.79L334.366,1521.81L334.301,1521.84L334.236,1521.86L334.171,1521.89L334.107,1521.91L334.042,1521.94L333.978,1521.97L333.914,1522L333.851,1522.03L333.787,1522.05L333.724,1522.08L333.661,1522.11L333.598,1522.14L333.535,1522.17L333.472,1522.2L333.41,1522.23L333.348,1522.26L333.287,1522.3L333.225,1522.33L333.163,1522.36L333.102,1522.39L333.041,1522.42L332.98,1522.46L332.92,1522.49L332.86,1522.53L332.8,1522.56L332.74,1522.6L332.68,1522.63L332.621,1522.66L332.561,1522.7L332.503,1522.74L332.444,1522.77L332.385,1522.81L332.327,1522.85L332.269,1522.88L332.211,1522.92L332.154,1522.96L332.097,1523L332.039,1523.04L331.983,1523.08L331.926,1523.12L331.87,1523.16L331.814,1523.2L331.758,1523.24L331.702,1523.28L331.647,1523.32L331.592,1523.36L331.537,1523.4L331.483,1523.44L331.428,1523.49L331.374,1523.53L331.321,1523.57L331.267,1523.62L331.214,1523.66L331.161,1523.7L331.108,1523.75L331.056,1523.79L331.004,1523.84L330.952,1523.88L330.9,1523.93L330.849,1523.97L330.798,1524.02L330.747,1524.07L330.697,1524.11L330.646,1524.16L330.596,1524.21L330.547,1524.26L330.497,1524.3L330.448,1524.35L330.399,1524.4L330.351,1524.45L330.303,1524.5L330.255,1524.55L330.207,1524.6L330.16,1524.65L330.113,1524.7L330.066,1524.75L330.02,1524.8L329.974,1524.85L329.928,1524.9L329.882,1524.95L329.837,1525L329.792,1525.06L329.748,1525.11L329.703,1525.16L329.659,1525.21L329.616,1525.27L329.572,1525.32L329.529,1525.37L329.486,1525.43L329.444,1525.48L329.402,1525.54L329.36,1525.59L329.319,1525.65L329.278,1525.7L329.237,1525.76L329.196,1525.81L329.156,1525.87L329.116,1525.93L329.077,1525.98L329.038,1526.04L328.999,1526.1L328.961,1526.15L328.923,1526.21L328.885,1526.27L328.847,1526.33L328.81,1526.38L328.773,1526.44L328.737,1526.5L328.701,1526.56L328.665,1526.62L328.63,1526.68L328.595,1526.74L328.56,1526.8L328.526,1526.86L328.492,1526.92L328.458,1526.98L328.425,1527.04L328.392,1527.1L328.359,1527.16L328.327,1527.23L328.295,1527.29L328.264,1527.35L328.233,1527.41L328.202,1527.47L328.172,1527.54L328.142,1527.6L328.112,1527.66L328.083,1527.72L328.054,1527.79L328.026,1527.85L327.997,1527.91L327.97,1527.98L327.942,1528.04L327.915,1528.11L327.889,1528.17L327.862,1528.24L327.837,1528.3L327.811,1528.37L327.786,1528.43L327.761,1528.5L327.737,1528.56L327.713,1528.63L327.69,1528.69L327.667,1528.76L327.644,1528.83L327.622,1528.89L327.6,1528.96L327.578,1529.03L327.557,1529.09L327.536,1529.16L327.516,1529.23L327.496,1529.3L327.477,1529.36L327.457,1529.43L327.439,1529.5L327.42,1529.57L327.403,1529.64L327.385,1529.71L327.368,1529.78L327.351,1529.84L327.335,1529.91L327.319,1529.98L327.304,1530.05L327.289,1530.12L327.275,1530.19L327.261,1530.26L327.247,1530.33L327.234,1530.4L327.221,1530.47L327.208,1530.54L327.196,1530.61L327.185,1530.68L327.174,1530.76L327.163,1530.83L327.153,1530.9L327.143,1530.97L327.134,1531.04L327.125,1531.11L327.116,1531.18L327.108,1531.26L327.101,1531.33L327.094,1531.4L327.087,1531.47L327.081,1531.55L327.075,1531.62L327.07,1531.69L327.065,1531.76L327.061,1531.84L327.057,1531.91L327.053,1531.98L327.05,1532.06L327.048,1532.13L327.045,1532.2L327.044,1532.28L327.043,1532.35L327.042,1532.43L327.042,1532.5L327.042,1532.57L327.043,1532.65L327.044,1532.72L327.045,1532.8L327.048,1532.87L327.05,1532.94L327.053,1533.02L327.057,1533.09L327.061,1533.16L327.065,1533.24L327.07,1533.31L327.075,1533.38L327.081,1533.45L327.087,1533.53L327.094,1533.6L327.101,1533.67L327.108,1533.74L327.116,1533.82L327.125,1533.89L327.134,1533.96L327.143,1534.03L327.153,1534.1L327.163,1534.17L327.174,1534.25L327.185,1534.32L327.196,1534.39L327.208,1534.46L327.221,1534.53L327.234,1534.6L327.247,1534.67L327.261,1534.74L327.275,1534.81L327.289,1534.88L327.304,1534.95L327.319,1535.02L327.335,1535.09L327.351,1535.16L327.368,1535.23L327.385,1535.29L327.403,1535.36L327.42,1535.43L327.439,1535.5L327.457,1535.57L327.477,1535.64L327.496,1535.7L327.516,1535.77L327.536,1535.84L327.557,1535.91L327.578,1535.97L327.6,1536.04L327.622,1536.11L327.644,1536.17L327.667,1536.24L327.69,1536.31L327.713,1536.37L327.737,1536.44L327.761,1536.5L327.786,1536.57L327.811,1536.63L327.837,1536.7L327.862,1536.76L327.889,1536.83L327.915,1536.89L327.942,1536.96L327.97,1537.02L327.997,1537.09L328.026,1537.15L328.054,1537.21L328.083,1537.28L328.112,1537.34L328.142,1537.4L328.172,1537.47L328.202,1537.53L328.233,1537.59L328.264,1537.65L328.295,1537.71L328.327,1537.78L328.359,1537.84L328.392,1537.9L328.425,1537.96L328.458,1538.02L328.492,1538.08L328.526,1538.14L328.56,1538.2L328.595,1538.26L328.63,1538.32L328.665,1538.38L328.701,1538.44L328.737,1538.5L328.773,1538.56L328.81,1538.62L328.847,1538.67L328.885,1538.73L328.923,1538.79L328.961,1538.85L328.999,1538.9L329.038,1538.96L329.077,1539.02L329.116,1539.07L329.156,1539.13L329.196,1539.19L329.237,1539.24L329.278,1539.3L329.319,1539.35L329.36,1539.41L329.402,1539.46L329.444,1539.52L329.486,1539.57L329.529,1539.63L329.572,1539.68L329.616,1539.73L329.659,1539.79L329.703,1539.84L329.748,1539.89L329.792,1539.94L329.837,1540L329.882,1540.05L329.928,1540.1L329.974,1540.15L330.02,1540.2L330.066,1540.25L330.113,1540.3L330.16,1540.35L330.207,1540.4L330.255,1540.45L330.303,1540.5L330.351,1540.55L330.399,1540.6L330.448,1540.65L330.497,1540.7L330.547,1540.75L330.596,1540.79L330.646,1540.84L330.697,1540.89L330.747,1540.93L330.798,1540.98L330.849,1541.03L330.9,1541.07L330.952,1541.12L331.004,1541.16L331.056,1541.21L331.108,1541.25L331.161,1541.3L331.214,1541.34L331.267,1541.38L331.321,1541.43L331.374,1541.47L331.428,1541.51L331.483,1541.56L331.537,1541.6L331.592,1541.64L331.647,1541.68L331.702,1541.72L331.758,1541.76L331.814,1541.8L331.87,1541.84L331.926,1541.88L331.983,1541.92L332.039,1541.96L332.097,1542L332.154,1542.04L332.211,1542.08L332.269,1542.12L332.327,1542.15L332.385,1542.19L332.444,1542.23L332.503,1542.26L332.561,1542.3L332.621,1542.34L332.68,1542.37L332.74,1542.4L332.8,1542.44L332.86,1542.47L332.92,1542.51L332.98,1542.54L333.041,1542.58L333.102,1542.61L333.163,1542.64L333.225,1542.67L333.287,1542.7L333.348,1542.74L333.41,1542.77L333.472,1542.8L333.535,1542.83L333.598,1542.86L333.661,1542.89L333.724,1542.92L333.787,1542.95L333.851,1542.97L333.914,1543L333.978,1543.03L334.042,1543.06L334.107,1543.09L334.171,1543.11L334.236,1543.14L334.301,1543.16L334.366,1543.19L334.431,1543.21L334.497,1543.24L334.562,1543.26L334.628,1543.29L334.694,1543.31L334.76,1543.33L334.827,1543.36L334.893,1543.38L334.96,1543.4L335.027,1543.42L335.094,1543.44L335.162,1543.46L335.229,1543.48L335.297,1543.5L335.364,1543.52L335.432,1543.54L335.501,1543.56L335.569,1543.58L335.637,1543.6L335.706,1543.62L335.775,1543.63L335.844,1543.65L335.913,1543.66L335.982,1543.68L336.052,1543.7L336.122,1543.71L336.191,1543.73L336.261,1543.74L336.331,1543.75L336.401,1543.77L336.472,1543.78L336.542,1543.79L336.613,1543.8L336.684,1543.82L336.755,1543.83L336.826,1543.84L336.897,1543.85L336.969,1543.86L337.041,1543.87L337.112,1543.88L337.184,1543.88L337.256,1543.89L337.328,1543.9L337.4,1543.91L337.473,1543.91L337.545,1543.92L337.618,1543.92L337.691,1543.93L337.764,1543.93L337.837,1543.94L337.91,1543.94L337.983,1543.95L338.057,1543.95L338.13,1543.95L338.204,1543.95L338.278,1543.96L338.352,1543.96L338.426,1543.96L338.5,1543.96L338.574,1543.96L338.648,1543.96L338.722,1543.96L338.796,1543.95L338.87,1543.95L338.943,1543.95L339.017,1543.95L339.09,1543.94L339.163,1543.94L339.236,1543.93L339.309,1543.93L339.382,1543.92L339.455,1543.92L339.527,1543.91L339.6,1543.91L339.672,1543.9L339.744,1543.89L339.816,1543.88L339.888,1543.88L339.959,1543.87L340.031,1543.86L340.103,1543.85L340.174,1543.84L340.245,1543.83L340.316,1543.82L340.387,1543.8L340.458,1543.79L340.528,1543.78L340.599,1543.77L340.669,1543.75L340.739,1543.74L340.809,1543.73L340.878,1543.71L340.948,1543.7L341.018,1543.68L341.087,1543.66L341.156,1543.65L341.225,1543.63L341.294,1543.62L341.363,1543.6L341.431,1543.58L341.499,1543.56L341.568,1543.54L341.636,1543.52L341.703,1543.5L341.771,1543.48L341.838,1543.46L341.906,1543.44L341.973,1543.42L342.04,1543.4L342.107,1543.38L342.173,1543.36L342.24,1543.33L342.306,1543.31L342.372,1543.29L342.438,1543.26L342.503,1543.24L342.569,1543.21L342.634,1543.19L342.699,1543.16L342.764,1543.14L342.829,1543.11L342.893,1543.09L342.958,1543.06L343.022,1543.03L343.086,1543L343.149,1542.97L343.213,1542.95L343.276,1542.92L343.339,1542.89L343.402,1542.86L343.465,1542.83L343.528,1542.8L343.59,1542.77L343.652,1542.74L343.713,1542.7L343.775,1542.67L343.837,1542.64L343.898,1542.61L343.959,1542.58L344.02,1542.54L344.08,1542.51L344.14,1542.47L344.2,1542.44L344.26,1542.4L344.32,1542.37L344.379,1542.34L344.439,1542.3L344.497,1542.26L344.556,1542.23L344.615,1542.19L344.673,1542.15L344.731,1542.12L344.789,1542.08L344.846,1542.04L344.903,1542L344.961,1541.96L345.017,1541.92L345.074,1541.88L345.13,1541.84L345.186,1541.8L345.242,1541.76L345.298,1541.72L345.353,1541.68L345.408,1541.64L345.463,1541.6L345.517,1541.56L345.572,1541.51L345.626,1541.47L345.679,1541.43L345.733,1541.38L345.786,1541.34L345.839,1541.3L345.892,1541.25L345.944,1541.21L345.996,1541.16L346.048,1541.12L346.1,1541.07L346.151,1541.03L346.202,1540.98L346.253,1540.93L346.303,1540.89L346.354,1540.84L346.404,1540.79L346.453,1540.75L346.503,1540.7L346.552,1540.65L346.601,1540.6L346.649,1540.55L346.697,1540.5L346.745,1540.45L346.793,1540.4L346.84,1540.35L346.887,1540.3L346.934,1540.25L346.98,1540.2L347.026,1540.15L347.072,1540.1L347.118,1540.05L347.163,1540L347.208,1539.94L347.252,1539.89L347.297,1539.84L347.341,1539.79L347.384,1539.73L347.428,1539.68L347.471,1539.63L347.514,1539.57L347.556,1539.52L347.598,1539.46L347.64,1539.41L347.681,1539.35L347.722,1539.3L347.763,1539.24L347.804,1539.19L347.844,1539.13L347.884,1539.07L347.923,1539.02L347.962,1538.96L348.001,1538.9L348.039,1538.85L348.077,1538.79L348.115,1538.73L348.153,1538.67L348.19,1538.62L348.227,1538.56L348.263,1538.5L348.299,1538.44L348.335,1538.38L348.37,1538.32L348.405,1538.26L348.44,1538.2L348.474,1538.14L348.508,1538.08L348.542,1538.02L348.575,1537.96L348.608,1537.9L348.641,1537.84L348.673,1537.78L348.705,1537.71L348.736,1537.65L348.767,1537.59L348.798,1537.53L348.828,1537.47L348.858,1537.4L348.888,1537.34L348.917,1537.28L348.946,1537.21L348.974,1537.15L349.003,1537.09L349.03,1537.02L349.058,1536.96L349.085,1536.89L349.111,1536.83L349.138,1536.76L349.163,1536.7L349.189,1536.63L349.214,1536.57L349.239,1536.5L349.263,1536.44L349.287,1536.37L349.31,1536.31L349.333,1536.24L349.356,1536.17L349.378,1536.11L349.4,1536.04L349.422,1535.97L349.443,1535.91L349.464,1535.84L349.484,1535.77L349.504,1535.7L349.524,1535.64L349.543,1535.57L349.561,1535.5L349.58,1535.43L349.597,1535.36L349.615,1535.29L349.632,1535.23L349.649,1535.16L349.665,1535.09L349.681,1535.02L349.696,1534.95L349.711,1534.88L349.725,1534.81L349.739,1534.74L349.753,1534.67L349.766,1534.6L349.779,1534.53L349.792,1534.46L349.804,1534.39L349.815,1534.32L349.826,1534.25L349.837,1534.17L349.847,1534.1L349.857,1534.03L349.866,1533.96L349.875,1533.89L349.883,1533.82L349.892,1533.74L349.899,1533.67L349.906,1533.6L349.913,1533.53L349.919,1533.45L349.925,1533.38L349.93,1533.31L349.935,1533.24L349.939,1533.16L349.943,1533.09L349.947,1533.02L349.95,1532.94L349.952,1532.87L349.955,1532.8L349.956,1532.72L349.957,1532.65L349.958,1532.57L349.958,1532.5L349.958,1532.43L349.957,1532.35L349.956,1532.28L349.955,1532.2L349.952,1532.13L349.95,1532.06L349.947,1531.98L349.943,1531.91L349.939,1531.84L349.935,1531.76L349.93,1531.69L349.925,1531.62L349.919,1531.55L349.913,1531.47L349.906,1531.4L349.899,1531.33L349.892,1531.26L349.883,1531.18L349.875,1531.11L349.866,1531.04L349.857,1530.97L349.847,1530.9L349.837,1530.83L349.826,1530.76L349.815,1530.68L349.804,1530.61L349.792,1530.54L349.779,1530.47L349.766,1530.4L349.753,1530.33L349.739,1530.26L349.725,1530.19L349.711,1530.12L349.696,1530.05L349.681,1529.98L349.665,1529.91L349.649,1529.84L349.632,1529.78L349.615,1529.71L349.597,1529.64L349.58,1529.57L349.561,1529.5L349.543,1529.43L349.524,1529.36L349.504,1529.3L349.484,1529.23L349.464,1529.16L349.443,1529.09L349.422,1529.03L349.4,1528.96L349.378,1528.89L349.356,1528.83L349.333,1528.76L349.31,1528.69L349.287,1528.63L349.263,1528.56L349.239,1528.5L349.214,1528.43L349.189,1528.37L349.163,1528.3L349.138,1528.24L349.111,1528.17L349.085,1528.11L349.058,1528.04L349.03,1527.98L349.003,1527.91L348.974,1527.85L348.946,1527.79L348.917,1527.72L348.888,1527.66L348.858,1527.6L348.828,1527.54L348.798,1527.47L348.767,1527.41L348.736,1527.35L348.705,1527.29L348.673,1527.23L348.641,1527.16L348.608,1527.1L348.575,1527.04L348.542,1526.98L348.508,1526.92L348.474,1526.86L348.44,1526.8L348.405,1526.74L348.37,1526.68L348.335,1526.62L348.299,1526.56L348.263,1526.5L348.227,1526.44L348.19,1526.38L348.153,1526.33L348.115,1526.27L348.077,1526.21L348.039,1526.15L348.001,1526.1L347.962,1526.04L347.923,1525.98L347.884,1525.93L347.844,1525.87L347.804,1525.81L347.763,1525.76L347.722,1525.7L347.681,1525.65L347.64,1525.59L347.598,1525.54L347.556,1525.48L347.514,1525.43L347.471,1525.37L347.428,1525.32L347.384,1525.27L347.341,1525.21L347.297,1525.16L347.252,1525.11L347.208,1525.06L347.163,1525L347.118,1524.95L347.072,1524.9L347.026,1524.85L346.98,1524.8L346.934,1524.75L346.887,1524.7L346.84,1524.65L346.793,1524.6L346.745,1524.55L346.697,1524.5L346.649,1524.45L346.601,1524.4L346.552,1524.35L346.503,1524.3L346.453,1524.26L346.404,1524.21L346.354,1524.16L346.303,1524.11L346.253,1524.07L346.202,1524.02L346.151,1523.97L346.1,1523.93L346.048,1523.88L345.996,1523.84L345.944,1523.79L345.892,1523.75L345.839,1523.7L345.786,1523.66L345.733,1523.62L345.679,1523.57L345.626,1523.53L345.572,1523.49L345.517,1523.44L345.463,1523.4L345.408,1523.36L345.353,1523.32L345.298,1523.28L345.242,1523.24L345.186,1523.2L345.13,1523.16L345.074,1523.12L345.017,1523.08L344.961,1523.04L344.903,1523L344.846,1522.96L344.789,1522.92L344.731,1522.88L344.673,1522.85L344.615,1522.81L344.556,1522.77L344.497,1522.74L344.439,1522.7L344.379,1522.66L344.32,1522.63L344.26,1522.6L344.2,1522.56L344.14,1522.53L344.08,1522.49L344.02,1522.46L343.959,1522.42L343.898,1522.39L343.837,1522.36L343.775,1522.33L343.713,1522.3L343.652,1522.26L343.59,1522.23L343.528,1522.2L343.465,1522.17L343.402,1522.14L343.339,1522.11L343.276,1522.08L343.213,1522.05L343.149,1522.03L343.086,1522L343.022,1521.97L342.958,1521.94L342.893,1521.91L342.829,1521.89L342.764,1521.86L342.699,1521.84L342.634,1521.81L342.569,1521.79L342.503,1521.76L342.438,1521.74L342.372,1521.71L342.306,1521.69L342.24,1521.67L342.173,1521.64L342.107,1521.62L342.04,1521.6L341.973,1521.58L341.906,1521.56L341.838,1521.54L341.771,1521.52L341.703,1521.5L341.636,1521.48L341.568,1521.46L341.499,1521.44L341.431,1521.42L341.363,1521.4L341.294,1521.38L341.225,1521.37L341.156,1521.35L341.087,1521.34L341.018,1521.32L340.948,1521.3L340.878,1521.29L340.809,1521.28L340.739,1521.26L340.669,1521.25L340.599,1521.23L340.528,1521.22L340.458,1521.21L340.387,1521.2L340.316,1521.18L340.245,1521.17L340.174,1521.16L340.103,1521.15L340.031,1521.14L339.959,1521.13L339.888,1521.12L339.816,1521.12L339.744,1521.11L339.672,1521.1L339.6,1521.09L339.527,1521.09L339.455,1521.08L339.382,1521.08L339.309,1521.07L339.236,1521.07L339.163,1521.06L339.09,1521.06L339.017,1521.05L338.943,1521.05L338.87,1521.05L338.796,1521.05L338.722,1521.04L338.648,1521.04L338.574,1521.04L338.5,1521.04L338.426,1521.04Z" style="fill:white;"/>
            </g>
        </g>
    </g>
</svg>
