<?xml version="1.0" encoding="UTF-8"?>
<!DOCTYPE svg PUBLIC "-//W3C//DTD SVG 1.1//EN" "http://www.w3.org/Graphics/SVG/1.1/DTD/svg11.dtd">
<svg version="1.1" xmlns="http://www.w3.org/2000/svg" xmlns:xlink="http://www.w3.org/1999/xlink" x="0" y="0" width="85.039" height="85.039" viewBox="0, 0, 85.039, 85.039">
  <g id="Background">
    <rect x="0" y="0" width="85.039" height="85.039" fill="#000000" fill-opacity="0"/>
  </g>
  <g id="Layer_1">
    <g>
      <path d="M43,78.5 C23.394,78.5 7.5,62.606 7.5,43 C7.5,23.394 23.394,7.5 43,7.5 C62.606,7.5 78.5,23.394 78.5,43 C78.5,62.606 62.606,78.5 43,78.5 z" fill="#FFFFFF"/>
      <path d="M43,78.5 C23.394,78.5 7.5,62.606 7.5,43 C7.5,23.394 23.394,7.5 43,7.5 C62.606,7.5 78.5,23.394 78.5,43 C78.5,62.606 62.606,78.5 43,78.5 z" fill-opacity="0" stroke="#000000" stroke-width="4"/>
    </g>
  </g>
</svg>
