<?xml version="1.0" encoding="UTF-8"?>
<!DOCTYPE svg PUBLIC "-//W3C//DTD SVG 1.1//EN" "http://www.w3.org/Graphics/SVG/1.1/DTD/svg11.dtd">
<svg version="1.1" xmlns="http://www.w3.org/2000/svg" xmlns:xlink="http://www.w3.org/1999/xlink" x="0" y="0" width="85.039" height="85.039" viewBox="0, 0, 85.039, 85.039">
  <g id="Background">
    <rect x="0" y="0" width="85.039" height="85.039" fill="#000000" fill-opacity="0"/>
  </g>
  <g id="Layer_1">
    <g>
      <g>
        <path d="M68.122,68.122 C54.258,81.986 31.781,81.986 17.917,68.122 C4.054,54.258 4.054,31.781 17.917,17.917 C31.781,4.054 54.258,4.054 68.122,17.917 C81.986,31.781 81.986,54.258 68.122,68.122 z" fill="#FFFFFF"/>
        <path d="M68.122,68.122 C54.258,81.986 31.781,81.986 17.917,68.122 C4.054,54.258 4.054,31.781 17.917,17.917 C31.781,4.054 54.258,4.054 68.122,17.917 C81.986,31.781 81.986,54.258 68.122,68.122 z" fill-opacity="0" stroke="#000000" stroke-width="4"/>
      </g>
      <g>
        <path d="M23.542,23.542 L38.534,38.534" fill-opacity="0" stroke="#000000" stroke-width="5" stroke-linecap="round"/>
        <path d="M23.733,23.352 L32.324,23.352" fill-opacity="0" stroke="#000000" stroke-width="5" stroke-linecap="round"/>
        <path d="M23.352,23.733 L23.352,32.324" fill-opacity="0" stroke="#000000" stroke-width="5" stroke-linecap="round"/>
      </g>
      <g>
        <path d="M62.497,23.542 L47.506,38.534" fill-opacity="0" stroke="#000000" stroke-width="5" stroke-linecap="round"/>
        <path d="M62.688,23.733 L62.688,32.324" fill-opacity="0" stroke="#000000" stroke-width="5" stroke-linecap="round"/>
        <path d="M62.307,23.352 L53.715,23.352" fill-opacity="0" stroke="#000000" stroke-width="5" stroke-linecap="round"/>
      </g>
      <g>
        <path d="M62.497,62.497 L47.506,47.506" fill-opacity="0" stroke="#000000" stroke-width="5" stroke-linecap="round"/>
        <path d="M62.307,62.688 L53.715,62.688" fill-opacity="0" stroke="#000000" stroke-width="5" stroke-linecap="round"/>
        <path d="M62.688,62.307 L62.688,53.715" fill-opacity="0" stroke="#000000" stroke-width="5" stroke-linecap="round"/>
      </g>
      <g>
        <path d="M23.542,62.497 L38.534,47.506" fill-opacity="0" stroke="#000000" stroke-width="5" stroke-linecap="round"/>
        <path d="M23.352,62.307 L23.352,53.715" fill-opacity="0" stroke="#000000" stroke-width="5" stroke-linecap="round"/>
        <path d="M23.733,62.688 L32.324,62.688" fill-opacity="0" stroke="#000000" stroke-width="5" stroke-linecap="round"/>
      </g>
    </g>
  </g>
</svg>
