<?xml version="1.0" encoding="UTF-8"?>
<!DOCTYPE svg PUBLIC "-//W3C//DTD SVG 1.1//EN" "http://www.w3.org/Graphics/SVG/1.1/DTD/svg11.dtd">
<svg version="1.1" xmlns="http://www.w3.org/2000/svg" xmlns:xlink="http://www.w3.org/1999/xlink" x="0" y="0" width="86" height="86" viewBox="0, 0, 86, 86">
  <g id="Background">
    <rect x="0" y="0" width="86" height="86" fill="#000000" fill-opacity="0"/>
  </g>
  <g id="Layer_1">
    <path d="M73.338,66.624 L67.169,32.208 C66.597,29.018 63.821,26.695 60.579,26.695 L52.985,26.695 C53.559,25.371 53.88,23.912 53.88,22.379 C53.88,16.38 48.999,11.5 43,11.5 C37.001,11.5 32.12,16.38 32.12,22.379 C32.12,23.912 32.441,25.371 33.014,26.695 L25.421,26.695 C22.178,26.695 19.403,29.018 18.83,32.208 L12.663,66.624 C12.312,68.575 12.845,70.581 14.118,72.102 C15.389,73.622 17.27,74.5 19.252,74.5 L66.748,74.5 C68.73,74.5 70.61,73.622 71.882,72.102 C73.155,70.581 73.688,68.575 73.338,66.624 z M43,18.195 C45.308,18.195 47.185,20.073 47.185,22.379 C47.185,24.687 45.308,26.565 43,26.565 C40.692,26.565 38.815,24.687 38.815,22.379 C38.815,20.073 40.692,18.195 43,18.195 z M19.252,67.805 L25.421,33.389 L60.579,33.389 L66.748,67.805 L19.252,67.805 z" fill="#000000"/>
  </g>
</svg>
