<?xml version="1.0" encoding="UTF-8"?>
<!DOCTYPE svg PUBLIC "-//W3C//DTD SVG 1.1//EN" "http://www.w3.org/Graphics/SVG/1.1/DTD/svg11.dtd">
<svg version="1.1" xmlns="http://www.w3.org/2000/svg" xmlns:xlink="http://www.w3.org/1999/xlink" x="0" y="0" width="163" height="163" viewBox="0, 0, 163, 163">
  <g id="Background">
    <rect x="0" y="0" width="163" height="163" fill="#000000" fill-opacity="0"/>
  </g>
  <g id="Layer_1">
    <g id="weight-thumb">
      <g>
        <path d="M156.689,81.537 C156.689,122.959 123.11,156.538 81.688,156.538 C40.266,156.538 6.687,122.959 6.687,81.537 C6.687,40.116 40.266,6.536 81.688,6.536 C123.11,6.536 156.689,40.116 156.689,81.537 z" fill-opacity="0" stroke="#FFFFFF" stroke-width="12.498"/>
        <path d="M156.689,81.537 C156.689,122.959 123.11,156.538 81.688,156.538 C40.266,156.538 6.687,122.959 6.687,81.537 C6.687,40.116 40.266,6.536 81.688,6.536 C123.11,6.536 156.689,40.116 156.689,81.537 z" fill="#444342"/>
      </g>
      <path d="M32.169,111.167 C31.799,113.887 32.619,116.627 34.429,118.687 C36.229,120.757 38.829,121.947 41.569,121.957 C60.969,121.997 101.399,122.097 121.209,122.147 C124.089,122.157 126.839,120.917 128.749,118.747 C130.649,116.577 131.529,113.697 131.149,110.837 C129.089,95.287 125.439,67.697 123.579,53.697 C122.929,48.727 118.699,45.017 113.689,45.007 C101.849,44.987 82.189,44.947 82.189,44.947 C82.189,44.947 61.929,44.917 49.869,44.897 C44.849,44.887 40.609,48.587 39.939,53.557 C38.029,67.717 34.249,95.767 32.169,111.167 z" fill-opacity="0" stroke="#FFFFFF" stroke-width="6.25"/>
      <g>
        <path d="M97.857,36.501 C97.857,45.432 90.617,52.671 81.687,52.671 C72.756,52.671 65.517,45.432 65.517,36.501 C65.517,27.571 72.756,20.331 81.687,20.331 C90.617,20.331 97.857,27.571 97.857,36.501 z" fill="#444342"/>
        <path d="M97.857,36.501 C97.857,45.432 90.617,52.671 81.687,52.671 C72.756,52.671 65.517,45.432 65.517,36.501 C65.517,27.571 72.756,20.331 81.687,20.331 C90.617,20.331 97.857,27.571 97.857,36.501 z" fill-opacity="0" stroke="#FFFFFF" stroke-width="6.25"/>
      </g>
      <g>
        <text transform="matrix(0.472, 0, 0, 0.472, 68.127, 81.982)">
          <tspan x="-25.5" y="36.5" font-family="Helvetica" font-size="100" fill="#FFFFFF">k</tspan>
        </text>
        <text transform="matrix(0.472, 0, 0, 0.472, 92.32, 81.982)">
          <tspan x="-28.308" y="36.5" font-family="Helvetica" font-size="100" fill="#FFFFFF">g</tspan>
        </text>
      </g>
    </g>
  </g>
</svg>
